<?xml version="1.0" encoding="utf-8"?>
<!-- Generator: Adobe Illustrator 27.3.1, SVG Export Plug-In . SVG Version: 6.00 Build 0)  -->
<svg version="1.1" id="Calque_1" xmlns="http://www.w3.org/2000/svg" xmlns:xlink="http://www.w3.org/1999/xlink" x="0px" y="0px"
	 viewBox="0 0 850.4 566.9" style="enable-background:new 0 0 850.4 566.9;" xml:space="preserve">
<style type="text/css">
	.st0{fill:#FFFFFF;}
	.st1{fill:none;stroke:#9D9D9C;stroke-miterlimit:10;}
	.st2{fill:#EDEDED;}
	.st3{opacity:0.5;fill:#1D1D1B;}
	.st4{fill:none;stroke:#000000;stroke-width:0.5;stroke-miterlimit:11.3386;}
	.st5{fill:none;stroke:#1D1D1B;stroke-width:0.5;stroke-miterlimit:11.3386;enable-background:new    ;}
	.st6{fill:none;stroke:#1D1D1B;stroke-width:0.5;stroke-miterlimit:11.3386;}
	.st7{fill:#141E8C;}
	.st8{fill:url(#path1948_00000150797753051064670080000015390313484746760845_);}
	.st9{fill:url(#path1950_00000131337009092683419670000017041018831217833132_);}
	.st10{font-family:'MyriadPro-Cond';}
	.st11{font-size:12px;}
	.st12{fill:#1D1D1B;}
	.st13{font-family:'MyriadPro-BoldCond';}
	.st14{font-size:21px;}
	.st15{font-size:18px;}
	.st16{fill:none;stroke:#1D1D1B;stroke-miterlimit:10;}
	.st17{fill:#C6C6C6;}
	.st18{fill:#9D9D9C;}
	.st19{opacity:0.1;fill:#1D1D1B;}
	.st20{font-size:7.2273px;}
	.st21{letter-spacing:1.2;}
	.st22{font-size:14px;}
	.st23{clip-path:url(#SVGID_00000083068944889772207170000010021105271610591130_);}
	.st24{clip-path:url(#SVGID_00000005258762158236311090000001052227646954409859_);}
	.st25{clip-path:url(#SVGID_00000004542668057717097840000011568515280896014995_);}
	.st26{fill:none;stroke:#95C11F;stroke-width:2;stroke-linecap:round;stroke-miterlimit:10;}
	.st27{fill:none;stroke:#E30613;stroke-width:2;stroke-linecap:round;stroke-miterlimit:10;}
	.st28{fill:#E30613;}
	.st29{fill:#95C11F;}
	.st30{font-size:10px;}
	.st31{fill:none;stroke:#FFFFFF;stroke-width:0.5;stroke-miterlimit:10;}
	.st32{fill:none;stroke:#DADADA;stroke-width:1.5;stroke-miterlimit:10;}
	.st33{fill:none;stroke:#29235C;stroke-width:0.25;stroke-miterlimit:10;}
	.st34{font-family:'MyriadPro-Regular';}
	.st35{font-size:11.7333px;}
	.st36{fill:#EDEDED;stroke:#B2B2B2;stroke-width:0.5;stroke-linejoin:round;stroke-miterlimit:10;}
	.st37{fill:none;stroke:#1D1D1B;stroke-linecap:round;stroke-miterlimit:10;}
	.st38{fill:#EDEDED;stroke:#B2B2B2;stroke-width:0.5;stroke-miterlimit:10;}
	.st39{fill:none;stroke:#B2B2B2;stroke-width:0.5;stroke-miterlimit:10;}
	.st40{opacity:0.1;fill:#1D71B8;}
	.st41{opacity:0.1;}
	.st42{fill:none;stroke:#95C11F;stroke-width:0.5;stroke-linecap:round;stroke-miterlimit:10;}
	.st43{fill:#1D71B8;}
</style>
<g>
	
		<image style="overflow:visible;opacity:0.15;" width="1494" height="1788" xlink:href="AB9287A4.png"  transform="matrix(0.24 0 0 0.24 51.7361 94.4481)">
	</image>
	<g>
		<path class="st0" d="M388.4,510.2H65.2c-4.7,0-8.5-3.8-8.5-8.5v-394c0-4.7,3.8-8.5,8.5-8.5h323.2c4.7,0,8.5,3.8,8.5,8.5v394
			C396.9,506.4,393,510.2,388.4,510.2z"/>
		<path class="st1" d="M388.4,510.2H65.2c-4.7,0-8.5-3.8-8.5-8.5v-394c0-4.7,3.8-8.5,8.5-8.5h323.2c4.7,0,8.5,3.8,8.5,8.5v394
			C396.9,506.4,393,510.2,388.4,510.2z"/>
	</g>
</g>
<g>
	<defs>
		<rect id="SVGID_1_" x="85" y="160.6" width="113.4" height="94.5"/>
	</defs>
	<clipPath id="SVGID_00000083775128088434338890000015386208492680134812_">
		<use xlink:href="#SVGID_1_"  style="overflow:visible;"/>
	</clipPath>
	<g style="clip-path:url(#SVGID_00000083775128088434338890000015386208492680134812_);">
		
			<image style="overflow:visible;" width="1755" height="1755" xlink:href="AB9287A4.jpg"  transform="matrix(6.460731e-02 0 0 6.460731e-02 85.0394 141.7243)">
		</image>
	</g>
</g>
<g>
	
		<image style="overflow:visible;opacity:0.15;" width="1494" height="254" xlink:href="AB9287A3.png"  transform="matrix(0.24 0 0 0.24 51.7361 46.0535)">
	</image>
	<g>
		<path class="st2" d="M388.4,93.5H65.2c-4.7,0-8.5-3.8-8.5-8.5V59.5c0-4.7,3.8-8.5,8.5-8.5h323.2c4.7,0,8.5,3.8,8.5,8.5V85
			C396.9,89.7,393,93.5,388.4,93.5z"/>
		<path class="st1" d="M388.4,93.5H65.2c-4.7,0-8.5-3.8-8.5-8.5V59.5c0-4.7,3.8-8.5,8.5-8.5h323.2c4.7,0,8.5,3.8,8.5,8.5V85
			C396.9,89.7,393,93.5,388.4,93.5z"/>
	</g>
</g>
<g id="S245_x5F_gad67-Reelin_x5F_PFC_x5F_Fig10_x5F_1024x1024_x5F_crop_x5F_nuclei_x5F_RGB_x5F_zoom_x5F_crop2.tif_00000124882005847307698800000013613416711204677260_">
	
		<image style="overflow:visible;" width="256" height="256" id="S245_x5F_gad67-Reelin_x5F_PFC_x5F_Fig10_x5F_1024x1024_x5F_crop_x5F_nuclei_x5F_RGB_x5F_zoom_x5F_crop2" xlink:href="AB9287AC.jpg"  transform="matrix(0.5536 0 0 0.5536 226.7717 340.1495)">
	</image>
</g>
<rect x="226.8" y="453.5" class="st3" width="141.7" height="28.3"/>
<g id="S245_x5F_gad67-Reelin_x5F_PFC_x5F_Fig10_x5F_1024x1024_x5F_crop_x5F_nuclei_x5F_RGB_00000020374209405237550810000010846988620801916563_">
	
		<image style="overflow:visible;" width="1024" height="1024" id="S245_x5F_gad67-Reelin_x5F_PFC_x5F_Fig10_x5F_1024x1024_x5F_crop_x5F_nuclei_x5F_RGB_00000062877259001738973910000017863428468147545734_" xlink:href="AB9287AF.jpg"  transform="matrix(0.1384 0 0 0.1384 226.7717 141.7247)">
	</image>
</g>
<rect x="226.8" y="255.1" class="st3" width="141.7" height="28.3"/>
<g>
	
		<image style="overflow:visible;opacity:0.15;" width="1493" height="254" xlink:href="AB9287AC.png"  transform="matrix(0.24 0 0 0.24 448.6961 46.0535)">
	</image>
	<g>
		<path class="st2" d="M785.2,93.5H462c-4.7,0-8.5-3.8-8.5-8.5V59.5c0-4.7,3.8-8.5,8.5-8.5h323.2c4.7,0,8.5,3.8,8.5,8.5V85
			C793.7,89.7,789.9,93.5,785.2,93.5z"/>
		<path class="st1" d="M785.2,93.5H462c-4.7,0-8.5-3.8-8.5-8.5V59.5c0-4.7,3.8-8.5,8.5-8.5h323.2c4.7,0,8.5,3.8,8.5,8.5V85
			C793.7,89.7,789.9,93.5,785.2,93.5z"/>
	</g>
</g>
<g>
	
		<image style="overflow:visible;opacity:0.15;" width="1493" height="1788" xlink:href="AB9287A2.png"  transform="matrix(0.24 0 0 0.24 448.6961 94.4481)">
	</image>
	<g>
		<path class="st0" d="M785.2,510.2H462c-4.7,0-8.5-3.8-8.5-8.5v-394c0-4.7,3.8-8.5,8.5-8.5h323.2c4.7,0,8.5,3.8,8.5,8.5v394
			C793.7,506.4,789.9,510.2,785.2,510.2z"/>
		<path class="st1" d="M785.2,510.2H462c-4.7,0-8.5-3.8-8.5-8.5v-394c0-4.7,3.8-8.5,8.5-8.5h323.2c4.7,0,8.5,3.8,8.5,8.5v394
			C793.7,506.4,789.9,510.2,785.2,510.2z"/>
	</g>
</g>
<g>
	<g>
		<path class="st7" d="M102,158.7c-5.4-2.4-11.6-2.4-17,0v-17h17V158.7z"/>
		<path class="st0" d="M87.1,146.9c-0.5,0-0.8,0.4-0.9,0.8h-0.4v-1.2h3c0,0,0,0.9-0.9,1.9c0,0-0.8,1-0.9,1.4h0.5
			c0.7,0,0.8-0.8,0.8-0.8h0.4v1.2h-3c0,0-0.1-0.9,0.9-2c0,0,0.6-0.7,0.8-1.3L87.1,146.9z"/>
		<path class="st0" d="M94.6,150.2v-0.4h-0.1c-0.2,0-0.3-0.1-0.3-0.3c0,0,0,0,0,0v-2.3c0-0.2,0.1-0.3,0.3-0.3c0,0,0,0,0,0h0.1v-0.4
			h-2v0.4h0.1c0.2,0,0.3,0.1,0.3,0.3c0,0,0,0,0,0v2.3c0,0.2-0.1,0.3-0.3,0.3c0,0,0,0,0,0h-0.1v0.4L94.6,150.2z"/>
		<path class="st0" d="M92.3,150.2V149h-0.4c0,0-0.1,0.8-0.8,0.8h-0.4v-1.3h0.1c0.2,0,0.3,0.1,0.3,0.3c0,0,0,0,0,0v0.1h0.4v-1.3
			h-0.4v0.2c0,0.2-0.1,0.3-0.3,0.3c0,0,0,0,0,0h-0.1v-1.3h0.4c0.7,0,0.8,0.8,0.8,0.8h0.4v-1.2h-3.1v0.4h0.1c0.2,0,0.3,0.1,0.3,0.3
			c0,0,0,0,0,0v2.3c0,0.2-0.1,0.3-0.3,0.3c0,0,0,0,0,0h-0.1v0.4L92.3,150.2z"/>
		<path class="st0" d="M96.7,146.9c0.5,0,0.8,0.4,0.9,0.8H98v-1.2h-2.8c0,0-0.5,0.6,0.7,1.9c0,0,0.8,1,0.9,1.4h-0.5
			c-0.7,0-0.8-0.8-0.8-0.8H95v1.2h2.9c0,0,0.5-0.6-0.8-2c0,0-0.7-0.7-0.8-1.3L96.7,146.9z"/>
		<path class="st0" d="M100,146.9c0.5,0,0.8,0.4,0.9,0.8h0.4v-1.2h-2.8c0,0-0.5,0.6,0.7,1.9c0,0,0.8,1,0.9,1.4h-0.5
			c-0.7,0-0.8-0.8-0.8-0.8h-0.4v1.2h2.9c0,0,0.5-0.6-0.8-2c0,0-0.7-0.7-0.8-1.3L100,146.9z"/>
	</g>
</g>
<sodipodi:namedview  bordercolor="#666666" borderopacity="1.0" gridtolerance="10.0" guidetolerance="10.0" height="40mm" id="base" objecttolerance="10.0" pagecolor="#ffffff" showgrid="false" units="mm" width="210mm">
	</sodipodi:namedview>
<g>
	
		<linearGradient id="path1948_00000062879752325926792850000004494763346097192832_" gradientUnits="userSpaceOnUse" x1="834.0073" y1="1418.3877" x2="864.537" y2="1392.121" gradientTransform="matrix(0.5625 0 0 -0.568 -10.6943 863.0912)">
		<stop  offset="0" style="stop-color:#5A9FD4"/>
		<stop  offset="1" style="stop-color:#306998"/>
	</linearGradient>
	
		<path id="path1948_00000091002716322241976200000005863093367950106752_" style="fill:url(#path1948_00000062879752325926792850000004494763346097192832_);" d="
		M474.6,56.7c-1.3,0-2.5,0.1-3.6,0.3c-3.2,0.6-3.8,1.7-3.8,3.9v2.8h7.5v0.9h-7.5h-2.8c-2.2,0-4.1,1.3-4.7,3.8
		c-0.7,2.8-0.7,4.6,0,7.6c0.5,2.2,1.8,3.8,4,3.8h2.6v-3.4c0-2.5,2.1-4.6,4.7-4.6h7.5c2.1,0,3.8-1.7,3.8-3.8v-7.1
		c0-2-1.7-3.5-3.8-3.9C477.2,56.8,475.9,56.7,474.6,56.7z M470.6,59c0.8,0,1.4,0.6,1.4,1.4c0,0.8-0.6,1.4-1.4,1.4
		c-0.8,0-1.4-0.6-1.4-1.4C469.1,59.6,469.8,59,470.6,59z"/>
	
		<linearGradient id="path1950_00000083091088770005946340000003815585581952319116_" gradientUnits="userSpaceOnUse" x1="876.2955" y1="1376.4338" x2="865.448" y2="1391.7812" gradientTransform="matrix(0.5625 0 0 -0.568 -10.6943 863.0912)">
		<stop  offset="0" style="stop-color:#FFD43B"/>
		<stop  offset="1" style="stop-color:#FFE873"/>
	</linearGradient>
	
		<path id="path1950_00000059285866943144227630000010048175944478481799_" style="fill:url(#path1950_00000083091088770005946340000003815585581952319116_);" d="
		M483.2,64.7V68c0,2.6-2.2,4.7-4.7,4.7H471c-2.1,0-3.8,1.7-3.8,3.8v7.1c0,2,1.8,3.2,3.8,3.8c2.4,0.7,4.7,0.8,7.5,0
		c1.9-0.5,3.8-1.6,3.8-3.8v-2.8h-7.5v-0.9h7.5h3.8c2.2,0,3-1.5,3.8-3.8c0.8-2.3,0.8-4.6,0-7.6c-0.5-2.2-1.6-3.8-3.8-3.8L483.2,64.7z
		 M479,82.6c0.8,0,1.4,0.6,1.4,1.4c0,0.8-0.6,1.4-1.4,1.4c-0.8,0-1.4-0.6-1.4-1.4C477.6,83.2,478.2,82.6,479,82.6z"/>
</g>
<text transform="matrix(1 0 0 1 107.7163 153.0628)" class="st10 st11">Celldiscover 7</text>
<g id="S245_x5F_gad67-Reelin_x5F_PFC_x5F_Fig10_x5F_1024x1024_x5F_crop_x5F_nuclei_x5F_Stardist_x5F_RGB_00000155131325829675039200000014660900990023129990_">
	
		<image style="overflow:visible;" width="1024" height="1024" id="S245_x5F_gad67-Reelin_x5F_PFC_x5F_Fig10_x5F_1024x1024_x5F_crop_x5F_nuclei_x5F_Stardist_x5F_RGB_00000150067918547064216930000018238444373065389731_" xlink:href="AB9287A5.jpg"  transform="matrix(0.1384 0 0 0.1384 481.8898 141.7247)">
	</image>
</g>
<text transform="matrix(1 0 0 1 102.0471 79.378)" class="st12 st13 st14">ZEN Blue</text>
<text transform="matrix(1 0 0 1 498.8981 79.3782)" class="st12 st13 st14">Python</text>
<text transform="matrix(1 0 0 1 232.4407 274.9526)" class="st0 st10 st15">Low resolution</text>
<g>
	
		<image style="overflow:visible;opacity:0.15;" width="426" height="104" xlink:href="AB9287A7.png"  transform="matrix(0.24 0 0 0.24 378.3761 204.3681)">
	</image>
	<g>
		<g>
			<line class="st16" x1="385.4" y1="212.6" x2="462.3" y2="212.6"/>
			<g>
				<path class="st12" d="M385.5,215.4c-1.6,0-2.8-1.3-2.8-2.8c0-1.6,1.3-2.8,2.8-2.8c1.6,0,2.8,1.3,2.8,2.8
					C388.3,214.1,387.1,215.4,385.5,215.4z"/>
			</g>
			<g>
				<polygon class="st12" points="461.2,216.3 467.7,212.6 461.2,208.9 				"/>
			</g>
		</g>
	</g>
</g>
<g>
	<g>
		<path d="M669.6,147.7v2.7h-2.7v-2.7L669.6,147.7z"/>
		<path d="M685.8,145.8h-1.5V145h3.9v0.8h-1.5v7.3h-0.9V145.8z"/>
		<path d="M689,144.8h0.9v3.1h0c0.1-0.2,0.3-0.4,0.5-0.5c0.2-0.1,0.4-0.2,0.8-0.2c0.7,0,1.4,0.6,1.4,2.1v3.9h-0.9v-3.7
			c0-0.7-0.2-1.4-0.8-1.4c-0.4,0-0.8,0.3-0.9,0.9c0,0.1,0,0.3,0,0.4v3.8H689V144.8z"/>
		<path d="M693.9,148.8c0-0.5,0-1.1,0-1.5h0.8l0,0.9h0c0.2-0.6,0.7-1,1.2-1c0.1,0,0.1,0,0.2,0v0.9c-0.1,0-0.1,0-0.2,0
			c-0.6,0-1,0.5-1.1,1.2c0,0.2,0,0.3,0,0.5v3.2h-0.9V148.8z"/>
		<path d="M697.5,150.2c0,1.8,0.7,2.2,1.4,2.2c0.4,0,0.7-0.1,1-0.2l0.1,0.7c-0.3,0.2-0.8,0.3-1.3,0.3c-1.4,0-2.1-1.1-2.1-2.9
			c0-1.9,0.8-3.1,2-3.1c1.2,0,1.7,1.2,1.7,2.6c0,0.2,0,0.4,0,0.5H697.5z M699.3,149.6c0-1.2-0.4-1.7-0.9-1.7c-0.6,0-0.9,0.9-0.9,1.7
			H699.3z"/>
		<path d="M701.1,152.1c0.2,0.1,0.6,0.3,0.9,0.3c0.5,0,0.9-0.3,0.9-0.8c0-0.4-0.2-0.7-0.7-1.1c-0.8-0.5-1.2-1-1.2-1.7
			c0-0.9,0.7-1.6,1.6-1.6c0.5,0,0.8,0.2,1,0.3l-0.3,0.7c-0.2-0.1-0.5-0.3-0.8-0.3c-0.5,0-0.8,0.4-0.8,0.7c0,0.4,0.1,0.6,0.7,1
			c0.7,0.4,1.2,1,1.2,1.8c0,1.2-0.8,1.7-1.7,1.7c-0.4,0-0.9-0.1-1.2-0.3L701.1,152.1z"/>
		<path d="M704.7,144.8h0.9v3.1h0c0.1-0.2,0.3-0.4,0.5-0.5c0.2-0.1,0.4-0.2,0.8-0.2c0.7,0,1.4,0.6,1.4,2.1v3.9h-0.9v-3.7
			c0-0.7-0.2-1.4-0.8-1.4c-0.4,0-0.8,0.3-0.9,0.9c0,0.1,0,0.3,0,0.4v3.8h-0.9V144.8z"/>
		<path d="M713.1,150.2c0,2.2-1,3-1.9,3c-1,0-1.9-0.9-1.9-3c0-2.1,0.9-3,1.9-3C712.3,147.2,713.1,148.1,713.1,150.2z M710.2,150.2
			c0,1,0.2,2.3,1,2.3c0.8,0,0.9-1.4,0.9-2.3c0-0.9-0.2-2.3-1-2.3C710.4,147.9,710.2,149.3,710.2,150.2z"/>
		<path d="M714.2,144.8h0.9v8.3h-0.9V144.8z"/>
		<path d="M719.9,144.8v6.9c0,0.4,0,1.1,0,1.4h-0.8l-0.1-0.7h0c-0.2,0.4-0.6,0.8-1.2,0.8c-1,0-1.7-1.1-1.7-3c0-2.1,0.9-3,1.8-3
			c0.4,0,0.8,0.2,1.1,0.7h0v-3.1H719.9z M719,149.5c0-0.1,0-0.3,0-0.4c-0.1-0.6-0.4-1.1-0.9-1.1c-0.8,0-1,1.1-1,2.2
			c0,1.2,0.3,2.2,1,2.2c0.3,0,0.7-0.2,0.9-1c0-0.1,0-0.2,0-0.4V149.5z"/>
		<path d="M722.2,145.8c0,0.4-0.2,0.6-0.6,0.6c-0.3,0-0.5-0.2-0.5-0.6c0-0.4,0.2-0.6,0.5-0.6C722,145.2,722.2,145.4,722.2,145.8z
			 M721.2,153.1v-5.8h0.9v5.8H721.2z"/>
		<path d="M723.4,148.8c0-0.7,0-1,0-1.5h0.8l0,0.7h0c0.3-0.5,0.7-0.8,1.3-0.8c0.8,0,1.4,0.6,1.4,2v3.9h-0.9v-3.7
			c0-0.7-0.1-1.4-0.8-1.4c-0.4,0-0.8,0.3-0.9,0.9c0,0.1,0,0.3,0,0.5v3.7h-0.9V148.8z"/>
		<path d="M731.8,147.3c0,0.4,0,0.9,0,1.8v3.2c0,1.5-0.2,2.1-0.6,2.5c-0.3,0.4-0.9,0.6-1.5,0.6c-0.5,0-1-0.1-1.3-0.3l0.2-0.7
			c0.2,0.1,0.6,0.3,1.1,0.3c0.7,0,1.2-0.5,1.2-1.8v-0.6h0c-0.2,0.5-0.6,0.7-1.1,0.7c-1,0-1.7-1.2-1.7-2.9c0-2.1,1-3,1.8-3
			c0.6,0,0.9,0.4,1.1,0.8h0l0-0.7H731.8z M730.9,149.3c0-0.1,0-0.3,0-0.4c-0.1-0.4-0.3-0.9-0.8-0.9c-0.7,0-1,0.9-1,2.2
			c0,1.5,0.5,2.2,1,2.2c0.3,0,0.6-0.1,0.8-0.8c0-0.2,0.1-0.4,0.1-0.5V149.3z"/>
		<path d="M669.6,159.7v2.7h-2.7v-2.7L669.6,159.7z"/>
		<path d="M684.9,157h0.9v7.3h2.3v0.8h-3.2V157z"/>
		<path d="M692.5,162.2c0,2.2-1,3-1.9,3c-1,0-1.9-0.9-1.9-3c0-2.1,0.9-3,1.9-3C691.6,159.2,692.5,160.1,692.5,162.2z M689.6,162.2
			c0,1,0.2,2.3,1,2.3c0.8,0,0.9-1.4,0.9-2.3c0-0.9-0.2-2.3-1-2.3C689.7,159.9,689.6,161.3,689.6,162.2z"/>
		<path d="M696.3,164.9c-0.2,0.1-0.6,0.2-1,0.2c-1.3,0-2.1-1-2.1-2.9c0-1.7,0.8-3,2.3-3c0.3,0,0.6,0.1,0.8,0.2l-0.2,0.8
			c-0.1-0.1-0.4-0.2-0.7-0.2c-0.9,0-1.3,1.1-1.3,2.2c0,1.4,0.5,2.2,1.4,2.2c0.3,0,0.5-0.1,0.7-0.2L696.3,164.9z"/>
		<path d="M699.4,165.1l-0.1-0.6h0c-0.3,0.4-0.7,0.7-1.2,0.7c-0.8,0-1.4-0.7-1.4-1.7c0-1.5,1.2-2.1,2.5-2.1v-0.2
			c0-0.8-0.2-1.3-0.9-1.3c-0.4,0-0.7,0.1-1,0.3l-0.2-0.6c0.2-0.2,0.8-0.4,1.4-0.4c1.2,0,1.7,0.8,1.7,2.1v2.5c0,0.4,0,0.9,0.1,1.3
			H699.4z M699.3,162.1c-0.5,0-1.6,0.1-1.6,1.3c0,0.8,0.4,1,0.7,1c0.4,0,0.8-0.3,0.9-0.9c0-0.1,0-0.2,0-0.3V162.1z"/>
		<path d="M701.5,156.8h0.9v8.3h-0.9V156.8z"/>
		<path d="M705.7,160.8c0-0.7,0-1,0-1.5h0.8l0,0.7h0c0.3-0.5,0.7-0.8,1.3-0.8c0.5,0,1,0.3,1.2,0.9h0c0.2-0.3,0.4-0.5,0.6-0.7
			c0.2-0.2,0.5-0.2,0.8-0.2c0.8,0,1.4,0.6,1.4,2.1v3.9h-0.9v-3.6c0-0.8-0.1-1.5-0.8-1.5c-0.4,0-0.7,0.3-0.9,0.9c0,0.2,0,0.3,0,0.5
			v3.7h-0.9v-3.8c0-0.6-0.1-1.3-0.8-1.3c-0.4,0-0.8,0.3-0.9,0.9c0,0.2,0,0.3,0,0.5v3.7h-0.9V160.8z"/>
		<path d="M715.4,165.1l-0.1-0.6h0c-0.3,0.4-0.7,0.7-1.2,0.7c-0.8,0-1.4-0.7-1.4-1.7c0-1.5,1.2-2.1,2.5-2.1v-0.2
			c0-0.8-0.2-1.3-0.9-1.3c-0.4,0-0.7,0.1-1,0.3l-0.2-0.6c0.2-0.2,0.8-0.4,1.4-0.4c1.2,0,1.7,0.8,1.7,2.1v2.5c0,0.4,0,0.9,0.1,1.3
			H715.4z M715.3,162.1c-0.5,0-1.6,0.1-1.6,1.3c0,0.8,0.4,1,0.7,1c0.4,0,0.8-0.3,0.9-0.9c0-0.1,0-0.2,0-0.3V162.1z"/>
		<path d="M718,159.3l0.5,1.2c0.1,0.3,0.3,0.7,0.4,1h0c0.1-0.4,0.3-0.7,0.4-1l0.5-1.2h0.9l-1.4,2.9l1.4,2.9h-1l-0.6-1.3
			c-0.1-0.3-0.2-0.6-0.4-1h0c-0.1,0.3-0.3,0.7-0.4,1l-0.5,1.3H717l1.4-2.9l-1.3-2.9H718z"/>
		<path d="M722.6,157.8c0,0.4-0.2,0.6-0.6,0.6c-0.3,0-0.5-0.2-0.5-0.6c0-0.4,0.2-0.6,0.5-0.6C722.3,157.2,722.6,157.4,722.6,157.8z
			 M721.6,165.1v-5.8h0.9v5.8H721.6z"/>
		<path d="M723.8,160.8c0-0.7,0-1,0-1.5h0.8l0,0.7h0c0.3-0.5,0.7-0.8,1.3-0.8c0.5,0,1,0.3,1.2,0.9h0c0.2-0.3,0.4-0.5,0.6-0.7
			c0.2-0.2,0.5-0.2,0.8-0.2c0.8,0,1.4,0.6,1.4,2.1v3.9H729v-3.6c0-0.8-0.1-1.5-0.8-1.5c-0.4,0-0.7,0.3-0.9,0.9c0,0.2,0,0.3,0,0.5
			v3.7h-0.9v-3.8c0-0.6-0.1-1.3-0.8-1.3c-0.4,0-0.8,0.3-0.9,0.9c0,0.2,0,0.3,0,0.5v3.7h-0.9V160.8z"/>
		<path d="M733.5,165.1l-0.1-0.6h0c-0.3,0.4-0.7,0.7-1.2,0.7c-0.8,0-1.4-0.7-1.4-1.7c0-1.5,1.2-2.1,2.5-2.1v-0.2
			c0-0.8-0.2-1.3-0.9-1.3c-0.4,0-0.7,0.1-1,0.3l-0.2-0.6c0.2-0.2,0.8-0.4,1.4-0.4c1.2,0,1.7,0.8,1.7,2.1v2.5c0,0.4,0,0.9,0.1,1.3
			H733.5z M733.4,162.1c-0.5,0-1.6,0.1-1.6,1.3c0,0.8,0.4,1,0.7,1c0.4,0,0.8-0.3,0.9-0.9c0-0.1,0-0.2,0-0.3V162.1z"/>
		<path d="M669.6,171.7v2.7h-2.7v-2.7L669.6,171.7z"/>
		<path d="M684.9,169.1c0.4-0.1,0.8-0.2,1.2-0.2c0.9,0,1.5,0.2,1.9,0.6c0.6,0.5,1.1,1.6,1.1,3.3c0,1.8-0.5,2.9-1,3.4
			c-0.5,0.6-1.3,0.9-2.2,0.9c-0.4,0-0.8,0-1-0.1V169.1z M685.8,176.3c0.1,0,0.3,0,0.3,0c1,0,2-0.7,2-3.5c0-2-0.6-3.2-1.9-3.2
			c-0.1,0-0.3,0-0.4,0V176.3z"/>
		<path d="M690.8,174.2c0,1.8,0.7,2.2,1.4,2.2c0.4,0,0.7-0.1,1-0.2l0.1,0.7c-0.3,0.2-0.8,0.3-1.3,0.3c-1.4,0-2.1-1.1-2.1-2.9
			c0-1.9,0.8-3.1,2-3.1c1.2,0,1.7,1.2,1.7,2.6c0,0.2,0,0.4,0,0.5H690.8z M692.6,173.6c0-1.2-0.4-1.7-0.9-1.7c-0.6,0-0.9,0.9-0.9,1.7
			H692.6z"/>
		<path d="M695.1,174.2c0,1.8,0.7,2.2,1.4,2.2c0.4,0,0.7-0.1,1-0.2l0.1,0.7c-0.3,0.2-0.8,0.3-1.3,0.3c-1.4,0-2.1-1.1-2.1-2.9
			c0-1.9,0.8-3.1,2-3.1c1.2,0,1.7,1.2,1.7,2.6c0,0.2,0,0.4,0,0.5H695.1z M697,173.6c0-1.2-0.4-1.7-0.9-1.7c-0.6,0-0.9,0.9-0.9,1.7
			H697z"/>
		<path d="M698.8,173.1c0-0.9,0-1.4,0-1.8h0.8l0,0.7h0c0.3-0.6,0.8-0.8,1.2-0.8c1,0,1.7,1.1,1.7,3c0,2.1-0.9,3-1.8,3
			c-0.5,0-0.9-0.3-1-0.7h0v2.9h-0.9V173.1z M699.8,174.9c0,0.2,0,0.3,0,0.5c0.2,0.8,0.6,1,0.9,1c0.8,0,1-1.1,1-2.2
			c0-1.2-0.3-2.2-1-2.2c-0.4,0-0.8,0.5-0.9,1.1c0,0.1,0,0.3,0,0.4V174.9z"/>
		<path d="M705.5,168.8h0.9v8.3h-0.9V168.8z"/>
		<path d="M708.5,174.2c0,1.8,0.7,2.2,1.4,2.2c0.4,0,0.7-0.1,1-0.2l0.1,0.7c-0.3,0.2-0.8,0.3-1.3,0.3c-1.4,0-2.1-1.1-2.1-2.9
			c0-1.9,0.8-3.1,2-3.1c1.2,0,1.7,1.2,1.7,2.6c0,0.2,0,0.4,0,0.5H708.5z M710.3,173.6c0-1.2-0.4-1.7-0.9-1.7c-0.6,0-0.9,0.9-0.9,1.7
			H710.3z"/>
		<path d="M714.5,177.1l-0.1-0.6h0c-0.3,0.4-0.7,0.7-1.2,0.7c-0.8,0-1.4-0.7-1.4-1.7c0-1.5,1.2-2.1,2.5-2.1v-0.2
			c0-0.8-0.2-1.3-0.9-1.3c-0.4,0-0.7,0.1-1,0.3l-0.2-0.6c0.2-0.2,0.8-0.4,1.4-0.4c1.2,0,1.7,0.8,1.7,2.1v2.5c0,0.4,0,0.9,0.1,1.3
			H714.5z M714.3,174.1c-0.5,0-1.6,0.1-1.6,1.3c0,0.8,0.4,1,0.7,1c0.4,0,0.8-0.3,0.9-0.9c0-0.1,0-0.2,0-0.3V174.1z"/>
		<path d="M716.5,172.8c0-0.5,0-1.1,0-1.5h0.8l0,0.9h0c0.2-0.6,0.7-1,1.2-1c0.1,0,0.1,0,0.2,0v0.9c-0.1,0-0.1,0-0.2,0
			c-0.6,0-1,0.5-1.1,1.2c0,0.2,0,0.3,0,0.5v3.2h-0.9V172.8z"/>
		<path d="M719.5,172.8c0-0.7,0-1,0-1.5h0.8l0,0.7h0c0.3-0.5,0.7-0.8,1.3-0.8c0.8,0,1.4,0.6,1.4,2v3.9h-0.9v-3.7
			c0-0.7-0.1-1.4-0.8-1.4c-0.4,0-0.8,0.3-0.9,0.9c0,0.1,0,0.3,0,0.5v3.7h-0.9V172.8z"/>
		<path d="M725.4,169.8c0,0.4-0.2,0.6-0.6,0.6c-0.3,0-0.5-0.2-0.5-0.6c0-0.4,0.2-0.6,0.5-0.6C725.1,169.2,725.4,169.4,725.4,169.8z
			 M724.4,177.1v-5.8h0.9v5.8H724.4z"/>
		<path d="M726.6,172.8c0-0.7,0-1,0-1.5h0.8l0,0.7h0c0.3-0.5,0.7-0.8,1.3-0.8c0.8,0,1.4,0.6,1.4,2v3.9h-0.9v-3.7
			c0-0.7-0.1-1.4-0.8-1.4c-0.4,0-0.8,0.3-0.9,0.9c0,0.1,0,0.3,0,0.5v3.7h-0.9V172.8z"/>
		<path d="M735,171.3c0,0.4,0,0.9,0,1.8v3.2c0,1.5-0.2,2.1-0.6,2.5c-0.3,0.4-0.9,0.6-1.5,0.6c-0.5,0-1-0.1-1.3-0.3l0.2-0.7
			c0.2,0.1,0.6,0.3,1.1,0.3c0.7,0,1.2-0.5,1.2-1.8v-0.6h0c-0.2,0.5-0.6,0.7-1.1,0.7c-1,0-1.7-1.2-1.7-2.9c0-2.1,1-3,1.8-3
			c0.6,0,0.9,0.4,1.1,0.8h0l0-0.7H735z M734,173.3c0-0.1,0-0.3,0-0.4c-0.1-0.4-0.3-0.9-0.8-0.9c-0.7,0-1,0.9-1,2.2
			c0,1.5,0.5,2.2,1,2.2c0.3,0,0.6-0.1,0.8-0.8c0-0.2,0.1-0.4,0.1-0.5V173.3z"/>
		<path d="M669.6,183.7v2.7h-2.7v-2.7L669.6,183.7z"/>
		<path d="M684.7,188.5c0-0.4,0.3-0.7,0.6-0.7c0.4,0,0.6,0.3,0.6,0.7s-0.2,0.7-0.6,0.7C685,189.2,684.7,188.9,684.7,188.5z"/>
		<path d="M687.1,188.5c0-0.4,0.3-0.7,0.6-0.7c0.4,0,0.6,0.3,0.6,0.7s-0.2,0.7-0.6,0.7C687.3,189.2,687.1,188.9,687.1,188.5z"/>
		<path d="M689.4,188.5c0-0.4,0.3-0.7,0.6-0.7c0.4,0,0.6,0.3,0.6,0.7s-0.2,0.7-0.6,0.7C689.6,189.2,689.4,188.9,689.4,188.5z"/>
	</g>
</g>
<g id="good_x5F_48x48_x5F_RGB_00000167377356358659952650000005623971076406259627_">
	
		<image style="overflow:visible;" width="48" height="48" id="good_x5F_48x48_x5F_RGB_00000079458941474026443810000014013671763868225188_" xlink:href="CC2D9B03.jpg"  transform="matrix(1.8898 0 0 1.8898 481.8898 391.1735)">
	</image>
</g>
<g id="packed_x5F_48x48_x5F_RGB_00000074443068174282337150000002368832042789135550_">
	
		<image style="overflow:visible;" width="48" height="48" id="packed_x5F_48x48_x5F_RGB_00000157296332046425366150000018027275848312385717_" xlink:href="CC2D9B01.jpg"  transform="matrix(1.8898 0 0 1.8898 578.2677 391.1735)">
	</image>
</g>
<g id="weird_x5F_48x48_x5F_RGB_00000049940694276769104630000012778235714438818491_">
	
		<image style="overflow:visible;" width="48" height="48" id="weird_x5F_48x48_x5F_RGB_00000016035926059281342590000015621559893607966851_" xlink:href="CC2D9B07.jpg"  transform="matrix(1.8898 0 0 1.8898 674.6457 391.1735)">
	</image>
</g>
<g>
	<g>
		<path d="M230,123.7L230,123.7l-2,1l-0.4-1.9l2.7-1.4h2.1v11.7H230V123.7z"/>
		<path d="M234.7,135.4c1-1.7,1.9-4.1,1.9-7.3s-0.9-5.6-1.9-7.3h1.7c1,1.3,2.1,3.7,2.1,7.3c-0.1,3.6-1.1,5.9-2.1,7.3H234.7z"/>
		<path d="M253,126.9c0,4.6-1.6,6.4-3.9,6.4c-2.8,0-3.8-2.9-3.8-6.2c0-3.3,1.3-6.2,4-6.2C252.2,120.9,253,124.2,253,126.9z
			 M247.7,127.2c0,2.8,0.5,4.2,1.5,4.2c1,0,1.4-1.8,1.4-4.3c0-2.1-0.3-4.1-1.4-4.1C248.2,123,247.7,124.5,247.7,127.2z"/>
		<path d="M256,124.4l0.7,3.9c0.1,0.8,0.3,1.6,0.4,2.5h0c0.1-0.9,0.2-1.6,0.3-2.5l0.7-3.9h2.3l-2.4,8.8h-2.2l-2.4-8.8H256z"/>
		<path d="M263.3,129.7c0,1.4,0.8,1.9,1.9,1.9c0.7,0,1.3-0.1,1.7-0.3l0.3,1.7c-0.6,0.2-1.5,0.4-2.4,0.4c-2.4,0-3.7-1.6-3.7-4.3
			c0-3,1.5-4.7,3.5-4.7c1.9,0,3,1.5,3,4.2c0,0.6,0,1-0.1,1.2H263.3z M265.4,128c0-1.1-0.3-2-1-2c-0.8,0-1.1,1.1-1.1,2H265.4z"/>
		<path d="M268.9,127.1c0-0.9,0-1.8-0.1-2.6h2.1l0.1,1.3h0.1c0.4-0.9,1.1-1.4,1.7-1.4c0.2,0,0.4,0,0.5,0v2.3c-0.1,0-0.3,0-0.5,0
			c-0.5,0-1.2,0.3-1.4,1.3c-0.1,0.2-0.1,0.5-0.1,0.9v4.5h-2.4V127.1z"/>
		<path d="M276,124.4l0.7,3.9c0.1,0.8,0.3,1.6,0.4,2.5h0c0.1-0.9,0.2-1.6,0.3-2.5l0.7-3.9h2.3l-2.4,8.8h-2.2l-2.4-8.8H276z"/>
		<path d="M283.7,122.1c0,0.8-0.5,1.3-1.2,1.3c-0.6,0-1.2-0.5-1.2-1.3c0-0.8,0.6-1.3,1.2-1.3C283.1,120.8,283.7,121.3,283.7,122.1z
			 M281.3,133.2v-8.8h2.4v8.8H281.3z"/>
		<path d="M287.3,129.7c0,1.4,0.8,1.9,1.9,1.9c0.7,0,1.3-0.1,1.7-0.3l0.3,1.7c-0.6,0.2-1.5,0.4-2.4,0.4c-2.4,0-3.7-1.6-3.7-4.3
			c0-3,1.5-4.7,3.5-4.7c1.9,0,3,1.5,3,4.2c0,0.6,0,1-0.1,1.2H287.3z M289.4,128c0-1.1-0.3-2-1-2c-0.8,0-1.1,1.1-1.1,2H289.4z"/>
		<path d="M294.6,124.4l0.5,3.8c0.1,1,0.2,1.8,0.3,2.7h0.1c0.1-0.8,0.3-1.8,0.5-2.6l0.8-3.8h1.8l0.8,3.7c0.2,1,0.3,1.9,0.4,2.7h0.1
			c0.1-0.8,0.2-1.7,0.3-2.7l0.5-3.8h2.3l-2.3,8.8h-2l-0.7-3.1c-0.2-0.8-0.3-1.7-0.5-2.8h0c-0.1,1-0.3,1.9-0.5,2.8l-0.8,3.1h-2
			l-2.2-8.8H294.6z"/>
	</g>
</g>
<text transform="matrix(1 0 0 1 481.8898 133.2208)" class="st13 st15">2) Object detection</text>
<g>
	
		<image style="overflow:visible;opacity:0.15;" width="202" height="226" xlink:href="CC2D9B01.png"  transform="matrix(0.24 0 0 0.24 403.8161 159.9761)">
	</image>
	<g>
		<g>
			<path class="st2" d="M433.7,172.9c-1.6,0-2.8-1.3-2.8-2.8v-5.7h-17c-1.6,0-2.8,1.3-2.8,2.8v31.2c0,1.6,1.3,2.8,2.8,2.8h22.7
				c1.6,0,2.8-1.3,2.8-2.8v-25.5H433.7z"/>
			<path class="st17" d="M430.9,164.4v5.7c0,1.6,1.3,2.8,2.8,2.8h5.7"/>
			<path class="st18" d="M435.1,195.6h-25.5c-0.8,0-1.4-0.6-1.4-1.4v-5.7c0-0.8,0.6-1.4,1.4-1.4h25.5c0.8,0,1.4,0.6,1.4,1.4v5.7
				C436.5,194.9,435.9,195.6,435.1,195.6z"/>
			<polygon class="st19" points="433.7,172.9 439.4,178.6 439.4,172.9 			"/>
			<text transform="matrix(0.8302 0 0 1 417.4721 193.7758)" class="st0 st13 st20 st21">CZI</text>
		</g>
	</g>
</g>
<text transform="matrix(1 0 0 1 409.559 229.5983)" class="st10 st22">Images</text>
<g>
	
		<image style="overflow:visible;opacity:0.15;" width="426" height="103" xlink:href="CC2D9B03.png"  transform="matrix(0.24 0 0 0.24 378.3761 397.3281)">
	</image>
	<g>
		<g>
			<line class="st16" x1="388.1" y1="405.3" x2="465" y2="405.3"/>
			<g>
				<polygon class="st12" points="389.2,409.1 382.7,405.3 389.2,401.6 				"/>
			</g>
			<g>
				<circle class="st12" cx="464.9" cy="405.3" r="2.8"/>
			</g>
		</g>
	</g>
</g>
<g>
	
		<image style="overflow:visible;opacity:0.15;" width="202" height="226" xlink:href="CC2D9B1E.png"  transform="matrix(0.24 0 0 0.24 403.8161 352.6961)">
	</image>
	<g>
		<g>
			<path class="st2" d="M433.7,365.7c-1.6,0-2.8-1.3-2.8-2.8v-5.7h-17c-1.6,0-2.8,1.3-2.8,2.8v31.2c0,1.6,1.3,2.8,2.8,2.8h22.7
				c1.6,0,2.8-1.3,2.8-2.8v-25.5H433.7z"/>
			<path class="st17" d="M430.9,357.2v5.7c0,1.6,1.3,2.8,2.8,2.8h5.7"/>
			<path class="st18" d="M435.1,388.3h-25.5c-0.8,0-1.4-0.6-1.4-1.4v-5.7c0-0.8,0.6-1.4,1.4-1.4h25.5c0.8,0,1.4,0.6,1.4,1.4v5.7
				C436.5,387.7,435.9,388.3,435.1,388.3z"/>
			<polygon class="st19" points="433.7,365.7 439.4,371.3 439.4,365.7 			"/>
			<text transform="matrix(0.8302 0 0 1 418.2567 386.5317)" class="st0 st13 st20 st21">CSV</text>
		</g>
	</g>
</g>
<text transform="matrix(1 0 0 1 413.0029 422.3546)"><tspan x="0" y="0" class="st10 st22">Stage</tspan><tspan x="-1.7" y="16.8" class="st10 st22">Coord.</tspan></text>
<g>
	<defs>
		<rect id="SVGID_00000004504644090975689000000007322072755243596456_" x="481.9" y="340.1" width="45.4" height="45.4"/>
	</defs>
	<clipPath id="SVGID_00000027582354110379030920000009382785878708883081_">
		<use xlink:href="#SVGID_00000004504644090975689000000007322072755243596456_"  style="overflow:visible;"/>
	</clipPath>
	
		<g id="good_x5F_48x48_x5F_Stardist_x5F_RGB_00000098217820442587086330000012826510386349567389_" style="clip-path:url(#SVGID_00000027582354110379030920000009382785878708883081_);">
		
			<image style="overflow:visible;" width="48" height="48" id="good_x5F_48x48_x5F_Stardist_x5F_RGB_00000183242790375640158760000014557470866608928933_" xlink:href="CC2D9B1F.jpg"  transform="matrix(0.9449 0 0 0.9449 481.8898 340.1499)">
		</image>
	</g>
</g>
<g>
	<defs>
		<rect id="SVGID_00000086655181069818394840000004304469598151215498_" x="578.3" y="340.1" width="45.4" height="45.4"/>
	</defs>
	<clipPath id="SVGID_00000138559089729086094380000018118998061918380189_">
		<use xlink:href="#SVGID_00000086655181069818394840000004304469598151215498_"  style="overflow:visible;"/>
	</clipPath>
	
		<g id="packed_x5F_48x48_x5F_Stardist_x5F_RGB_00000099648200998219517800000017241136567273201321_" style="clip-path:url(#SVGID_00000138559089729086094380000018118998061918380189_);">
		
			<image style="overflow:visible;" width="48" height="48" id="packed_x5F_48x48_x5F_Stardist_x5F_RGB_00000118397938193609043430000006943258758907822470_" xlink:href="CC2D9B02.jpg"  transform="matrix(0.9449 0 0 0.9449 578.2677 340.1499)">
		</image>
	</g>
</g>
<g>
	<defs>
		<rect id="SVGID_00000053524975128542403460000008824495865026687634_" x="674.6" y="340.1" width="45.4" height="45.4"/>
	</defs>
	<clipPath id="SVGID_00000084505202540600938490000001453121957777801908_">
		<use xlink:href="#SVGID_00000053524975128542403460000008824495865026687634_"  style="overflow:visible;"/>
	</clipPath>
	
		<g id="weird_x5F_48x48_x5F_Stardist_x5F_RGB_00000137840524709098494770000013787121533018735036_" style="clip-path:url(#SVGID_00000084505202540600938490000001453121957777801908_);">
		
			<image style="overflow:visible;" width="48" height="48" id="weird_x5F_48x48_x5F_Stardist_x5F_RGB_00000018940302882061027160000016178028854282934207_" xlink:href="CC2D9B05.jpg"  transform="matrix(0.9449 0 0 0.9449 674.6457 340.1499)">
		</image>
	</g>
</g>
<text transform="matrix(1 0 0 1 481.8891 331.6455)" class="st13 st15">3) Object selection</text>
<g>
	<line class="st26" x1="550.9" y1="403.9" x2="555.6" y2="411"/>
	<line class="st26" x1="565" y1="396.8" x2="555.6" y2="411"/>
</g>
<g>
	<line class="st27" x1="649.1" y1="396.8" x2="663.3" y2="411"/>
	<line class="st27" x1="649.1" y1="411" x2="663.3" y2="396.8"/>
</g>
<g>
	<line class="st27" x1="745.5" y1="396.8" x2="759.7" y2="411"/>
	<line class="st27" x1="745.5" y1="411" x2="759.7" y2="396.8"/>
</g>
<text transform="matrix(1 0 0 1 728.5038 359.9924)"><tspan x="0" y="0" class="st28 st10 st11">Wrong</tspan><tspan x="0" y="14.4" class="st28 st10 st11">Shape</tspan></text>
<text transform="matrix(1 0 0 1 631.8595 365.6617)" class="st28 st10 st11">Clustered</text>
<text transform="matrix(1 0 0 1 535.7476 365.6617)" class="st29 st10 st11">Isolated</text>
<text transform="matrix(1 0 0 1 226.7714 331.6456)" class="st13 st15">4) Guided acquisition</text>
<text transform="matrix(1 0 0 1 651.9694 215.4253)" class="st10 st22">Outputs</text>
<text transform="matrix(1 0 0 1 651.9689 133.2206)" class="st10 st22">Methods</text>
<g>
	<g>
		<path d="M669.6,229.9v2.7h-2.7v-2.7L669.6,229.9z"/>
		<path d="M684.7,234.2c0.3,0.2,0.8,0.3,1.2,0.3c0.8,0,1.3-0.6,1.3-1.4c0-0.7-0.4-1.2-1.1-1.7c-0.6-0.4-1.5-1.2-1.5-2.2
			c0-1.2,0.9-2.1,2.1-2.1c0.5,0,0.9,0.2,1.1,0.3l-0.2,0.8c-0.2-0.1-0.5-0.3-1-0.3c-0.8,0-1.2,0.6-1.2,1.2c0,0.8,0.4,1.1,1.2,1.7
			c1,0.7,1.4,1.4,1.4,2.3c0,1.4-1,2.3-2.3,2.3c-0.6,0-1.1-0.2-1.4-0.3L684.7,234.2z"/>
		<path d="M689.1,227h0.9v3.1h0c0.1-0.2,0.3-0.4,0.5-0.5c0.2-0.1,0.4-0.2,0.8-0.2c0.7,0,1.4,0.6,1.4,2.1v3.9h-0.9v-3.7
			c0-0.7-0.2-1.4-0.8-1.4c-0.4,0-0.8,0.3-0.9,0.9c0,0.1,0,0.3,0,0.4v3.8h-0.9V227z"/>
		<path d="M696.3,235.3l-0.1-0.6h0c-0.3,0.4-0.7,0.7-1.2,0.7c-0.8,0-1.4-0.7-1.4-1.7c0-1.5,1.2-2.1,2.5-2.1v-0.2
			c0-0.8-0.2-1.3-0.9-1.3c-0.4,0-0.7,0.1-1,0.3l-0.2-0.6c0.2-0.2,0.8-0.4,1.4-0.4c1.2,0,1.7,0.8,1.7,2.1v2.5c0,0.4,0,0.9,0.1,1.3
			H696.3z M696.1,232.3c-0.5,0-1.6,0.1-1.6,1.3c0,0.8,0.4,1,0.7,1c0.4,0,0.8-0.3,0.9-0.9c0-0.1,0-0.2,0-0.3V232.3z"/>
		<path d="M698.3,231.3c0-0.9,0-1.4,0-1.8h0.8l0,0.7h0c0.3-0.6,0.8-0.8,1.2-0.8c1,0,1.7,1.1,1.7,3c0,2.1-0.9,3-1.8,3
			c-0.5,0-0.9-0.3-1-0.7h0v2.9h-0.9V231.3z M699.3,233.1c0,0.2,0,0.3,0,0.5c0.2,0.8,0.6,1,0.9,1c0.8,0,1-1.1,1-2.2
			c0-1.2-0.3-2.2-1-2.2c-0.4,0-0.8,0.5-0.9,1.1c0,0.1,0,0.3,0,0.4V233.1z"/>
		<path d="M703.8,232.4c0,1.8,0.7,2.2,1.4,2.2c0.4,0,0.7-0.1,1-0.2l0.1,0.7c-0.3,0.2-0.8,0.3-1.3,0.3c-1.4,0-2.1-1.1-2.1-2.9
			c0-1.9,0.8-3.1,2-3.1c1.2,0,1.7,1.2,1.7,2.6c0,0.2,0,0.4,0,0.5H703.8z M705.6,231.8c0-1.2-0.4-1.7-0.9-1.7c-0.6,0-0.9,0.9-0.9,1.7
			H705.6z"/>
		<path d="M669.6,241.9v2.7h-2.7v-2.7L669.6,241.9z"/>
		<path d="M684.9,239.3c0.4-0.1,0.8-0.2,1.4-0.2c0.7,0,1.4,0.2,1.8,0.6c0.3,0.3,0.5,0.8,0.5,1.4c0,0.8-0.5,1.5-1.2,1.8v0
			c0.9,0.3,1.5,1,1.5,2.1c0,0.7-0.2,1.2-0.6,1.6c-0.5,0.5-1.2,0.7-2.1,0.7c-0.6,0-1,0-1.2-0.1V239.3z M685.8,242.6h0.4
			c0.8,0,1.4-0.6,1.4-1.4c0-0.7-0.3-1.3-1.3-1.3c-0.2,0-0.4,0-0.5,0.1V242.6z M685.8,246.5c0.1,0,0.3,0,0.5,0c1,0,1.6-0.6,1.6-1.6
			c0-1.1-0.8-1.6-1.6-1.7h-0.4V246.5z"/>
		<path d="M689.8,243c0-0.5,0-1.1,0-1.5h0.8l0,0.9h0c0.2-0.6,0.7-1,1.2-1c0.1,0,0.1,0,0.2,0v0.9c-0.1,0-0.1,0-0.2,0
			c-0.6,0-1,0.5-1.1,1.2c0,0.2,0,0.3,0,0.5v3.2h-0.9V243z"/>
		<path d="M693.8,240c0,0.4-0.2,0.6-0.6,0.6c-0.3,0-0.5-0.2-0.5-0.6c0-0.4,0.2-0.6,0.5-0.6C693.5,239.4,693.8,239.6,693.8,240z
			 M692.8,247.3v-5.8h0.9v5.8H692.8z"/>
		<path d="M698.5,241.5c0,0.4,0,0.9,0,1.8v3.2c0,1.5-0.2,2.1-0.6,2.5c-0.3,0.4-0.9,0.6-1.5,0.6c-0.5,0-1-0.1-1.3-0.3l0.2-0.7
			c0.2,0.1,0.6,0.3,1.1,0.3c0.7,0,1.2-0.5,1.2-1.8v-0.6h0c-0.2,0.5-0.6,0.7-1.1,0.7c-1,0-1.7-1.2-1.7-2.9c0-2.1,1-3,1.8-3
			c0.6,0,0.9,0.4,1.1,0.8h0l0-0.7H698.5z M697.6,243.5c0-0.1,0-0.3,0-0.4c-0.1-0.4-0.3-0.9-0.8-0.9c-0.7,0-1,0.9-1,2.2
			c0,1.5,0.5,2.2,1,2.2c0.3,0,0.6-0.1,0.8-0.8c0-0.2,0.1-0.4,0.1-0.5V243.5z"/>
		<path d="M699.8,239h0.9v3.1h0c0.1-0.2,0.3-0.4,0.5-0.5c0.2-0.1,0.4-0.2,0.8-0.2c0.7,0,1.4,0.6,1.4,2.1v3.9h-0.9v-3.7
			c0-0.7-0.2-1.4-0.8-1.4c-0.4,0-0.8,0.3-0.9,0.9c0,0.1,0,0.3,0,0.4v3.8h-0.9V239z"/>
		<path d="M705.7,239.9v1.5h1.1v0.7h-1.1v3.4c0,0.8,0.3,1,0.6,1c0.1,0,0.3,0,0.4,0l0,0.7c-0.2,0.1-0.4,0.1-0.7,0.1
			c-0.4,0-0.7-0.1-0.9-0.3c-0.2-0.3-0.3-0.7-0.3-1.5v-3.4h-0.7v-0.7h0.7v-1.3L705.7,239.9z"/>
		<path d="M707.7,243c0-0.7,0-1,0-1.5h0.8l0,0.7h0c0.3-0.5,0.7-0.8,1.3-0.8c0.8,0,1.4,0.6,1.4,2v3.9h-0.9v-3.7
			c0-0.7-0.1-1.4-0.8-1.4c-0.4,0-0.8,0.3-0.9,0.9c0,0.1,0,0.3,0,0.5v3.7h-0.9V243z"/>
		<path d="M713.2,244.4c0,1.8,0.7,2.2,1.4,2.2c0.4,0,0.7-0.1,1-0.2l0.1,0.7c-0.3,0.2-0.8,0.3-1.3,0.3c-1.4,0-2.1-1.1-2.1-2.9
			c0-1.9,0.8-3.1,2-3.1c1.2,0,1.7,1.2,1.7,2.6c0,0.2,0,0.4,0,0.5H713.2z M715,243.8c0-1.2-0.4-1.7-0.9-1.7c-0.6,0-0.9,0.9-0.9,1.7
			H715z"/>
		<path d="M716.7,246.3c0.2,0.1,0.6,0.3,0.9,0.3c0.5,0,0.9-0.3,0.9-0.8c0-0.4-0.2-0.7-0.7-1.1c-0.8-0.5-1.2-1-1.2-1.7
			c0-0.9,0.7-1.6,1.6-1.6c0.5,0,0.8,0.2,1,0.3l-0.3,0.7c-0.2-0.1-0.5-0.3-0.8-0.3c-0.5,0-0.8,0.4-0.8,0.7c0,0.4,0.1,0.6,0.7,1
			c0.7,0.4,1.2,1,1.2,1.8c0,1.2-0.8,1.7-1.7,1.7c-0.4,0-0.9-0.1-1.2-0.3L716.7,246.3z"/>
		<path d="M720.2,246.3c0.2,0.1,0.6,0.3,0.9,0.3c0.5,0,0.9-0.3,0.9-0.8c0-0.4-0.2-0.7-0.7-1.1c-0.8-0.5-1.2-1-1.2-1.7
			c0-0.9,0.7-1.6,1.6-1.6c0.5,0,0.8,0.2,1,0.3l-0.3,0.7c-0.2-0.1-0.5-0.3-0.8-0.3c-0.5,0-0.8,0.4-0.8,0.7c0,0.4,0.1,0.6,0.7,1
			c0.7,0.4,1.2,1,1.2,1.8c0,1.2-0.8,1.7-1.7,1.7c-0.4,0-0.9-0.1-1.2-0.3L720.2,246.3z"/>
		<path d="M669.6,253.9v2.7h-2.7v-2.7L669.6,253.9z"/>
		<path d="M684.9,251.3c0.4-0.1,0.8-0.2,1.2-0.2c0.9,0,1.5,0.2,1.9,0.6c0.6,0.5,1.1,1.6,1.1,3.3c0,1.8-0.5,2.9-1,3.4
			c-0.5,0.6-1.3,0.9-2.2,0.9c-0.4,0-0.8,0-1-0.1V251.3z M685.8,258.5c0.1,0,0.3,0,0.3,0c1,0,2-0.7,2-3.5c0-2-0.6-3.2-1.9-3.2
			c-0.1,0-0.3,0-0.4,0V258.5z"/>
		<path d="M690.8,256.4c0,1.8,0.7,2.2,1.4,2.2c0.4,0,0.7-0.1,1-0.2l0.1,0.7c-0.3,0.2-0.8,0.3-1.3,0.3c-1.4,0-2.1-1.1-2.1-2.9
			c0-1.9,0.8-3.1,2-3.1c1.2,0,1.7,1.2,1.7,2.6c0,0.2,0,0.4,0,0.5H690.8z M692.6,255.8c0-1.2-0.4-1.7-0.9-1.7c-0.6,0-0.9,0.9-0.9,1.7
			H692.6z"/>
		<path d="M694.5,255c0-0.7,0-1,0-1.5h0.8l0,0.7h0c0.3-0.5,0.7-0.8,1.3-0.8c0.8,0,1.4,0.6,1.4,2v3.9h-0.9v-3.7
			c0-0.7-0.1-1.4-0.8-1.4c-0.4,0-0.8,0.3-0.9,0.9c0,0.1,0,0.3,0,0.5v3.7h-0.9V255z"/>
		<path d="M699.2,258.3c0.2,0.1,0.6,0.3,0.9,0.3c0.5,0,0.9-0.3,0.9-0.8c0-0.4-0.2-0.7-0.7-1.1c-0.8-0.5-1.2-1-1.2-1.7
			c0-0.9,0.7-1.6,1.6-1.6c0.5,0,0.8,0.2,1,0.3l-0.3,0.7c-0.2-0.1-0.5-0.3-0.8-0.3c-0.5,0-0.8,0.4-0.8,0.7c0,0.4,0.1,0.6,0.7,1
			c0.7,0.4,1.2,1,1.2,1.8c0,1.2-0.8,1.7-1.7,1.7c-0.4,0-0.9-0.1-1.2-0.3L699.2,258.3z"/>
		<path d="M703.8,252c0,0.4-0.2,0.6-0.6,0.6c-0.3,0-0.5-0.2-0.5-0.6c0-0.4,0.2-0.6,0.5-0.6C703.6,251.4,703.8,251.6,703.8,252z
			 M702.8,259.3v-5.8h0.9v5.8H702.8z"/>
		<path d="M706.1,251.9v1.5h1.1v0.7h-1.1v3.4c0,0.8,0.3,1,0.6,1c0.1,0,0.3,0,0.4,0l0,0.7c-0.2,0.1-0.4,0.1-0.7,0.1
			c-0.4,0-0.7-0.1-0.9-0.3c-0.2-0.3-0.3-0.7-0.3-1.5v-3.4h-0.7v-0.7h0.7v-1.3L706.1,251.9z"/>
		<path d="M708.6,253.5l0.8,3.3c0.1,0.5,0.2,0.8,0.2,1.2h0c0.1-0.3,0.2-0.8,0.3-1.2l0.7-3.3h0.9l-0.9,3.7c-0.4,1.5-0.8,2.9-1.4,3.7
			c-0.4,0.5-0.8,0.8-1,0.9l-0.3-0.8c0.3-0.1,0.6-0.4,0.8-0.7c0.2-0.3,0.4-0.7,0.5-1c0-0.1,0.1-0.2,0.1-0.3c0-0.1,0-0.1,0-0.2
			l-1.5-5.4H708.6z"/>
		<path d="M669.6,265.9v2.7h-2.7v-2.7L669.6,265.9z"/>
		<path d="M684.7,270.2c0.3,0.2,0.8,0.3,1.2,0.3c0.8,0,1.3-0.6,1.3-1.4c0-0.7-0.4-1.2-1.1-1.7c-0.6-0.4-1.5-1.2-1.5-2.2
			c0-1.2,0.9-2.1,2.1-2.1c0.5,0,0.9,0.2,1.1,0.3l-0.2,0.8c-0.2-0.1-0.5-0.3-1-0.3c-0.8,0-1.2,0.6-1.2,1.2c0,0.8,0.4,1.1,1.2,1.7
			c1,0.7,1.4,1.4,1.4,2.3c0,1.4-1,2.3-2.3,2.3c-0.6,0-1.1-0.2-1.4-0.3L684.7,270.2z"/>
		<path d="M690.2,263.9v1.5h1.1v0.7h-1.1v3.4c0,0.8,0.3,1,0.6,1c0.1,0,0.3,0,0.4,0l0,0.7c-0.2,0.1-0.4,0.1-0.7,0.1
			c-0.4,0-0.7-0.1-0.9-0.3c-0.2-0.3-0.3-0.7-0.3-1.5v-3.4h-0.7v-0.7h0.7v-1.3L690.2,263.9z"/>
		<path d="M694.5,271.3l-0.1-0.6h0c-0.3,0.4-0.7,0.7-1.2,0.7c-0.8,0-1.4-0.7-1.4-1.7c0-1.5,1.2-2.1,2.5-2.1v-0.2
			c0-0.8-0.2-1.3-0.9-1.3c-0.4,0-0.7,0.1-1,0.3l-0.2-0.6c0.2-0.2,0.8-0.4,1.4-0.4c1.2,0,1.7,0.8,1.7,2.1v2.5c0,0.4,0,0.9,0.1,1.3
			H694.5z M694.3,268.3c-0.5,0-1.6,0.1-1.6,1.3c0,0.8,0.4,1,0.7,1c0.4,0,0.8-0.3,0.9-0.9c0-0.1,0-0.2,0-0.3V268.3z"/>
		<path d="M700.1,265.5c0,0.4,0,0.9,0,1.8v3.2c0,1.5-0.2,2.1-0.6,2.5c-0.3,0.4-0.9,0.6-1.5,0.6c-0.5,0-1-0.1-1.3-0.3l0.2-0.7
			c0.2,0.1,0.6,0.3,1.1,0.3c0.7,0,1.2-0.5,1.2-1.8v-0.6h0c-0.2,0.5-0.6,0.7-1.1,0.7c-1,0-1.7-1.2-1.7-2.9c0-2.1,1-3,1.8-3
			c0.6,0,0.9,0.4,1.1,0.8h0l0-0.7H700.1z M699.1,267.5c0-0.1,0-0.3,0-0.4c-0.1-0.4-0.3-0.9-0.8-0.9c-0.7,0-1,0.9-1,2.2
			c0,1.5,0.5,2.2,1,2.2c0.3,0,0.6-0.1,0.8-0.8c0-0.2,0.1-0.4,0.1-0.5V267.5z"/>
		<path d="M702,268.4c0,1.8,0.7,2.2,1.4,2.2c0.4,0,0.7-0.1,1-0.2l0.1,0.7c-0.3,0.2-0.8,0.3-1.3,0.3c-1.4,0-2.1-1.1-2.1-2.9
			c0-1.9,0.8-3.1,2-3.1c1.2,0,1.7,1.2,1.7,2.6c0,0.2,0,0.4,0,0.5H702z M703.8,267.8c0-1.2-0.4-1.7-0.9-1.7c-0.6,0-0.9,0.9-0.9,1.7
			H703.8z"/>
		<path d="M710.4,271.1c-0.2,0.1-0.6,0.2-1,0.2c-1.3,0-2.1-1-2.1-2.9c0-1.7,0.8-3,2.3-3c0.3,0,0.6,0.1,0.8,0.2l-0.2,0.8
			c-0.1-0.1-0.4-0.2-0.7-0.2c-0.9,0-1.3,1.1-1.3,2.2c0,1.4,0.5,2.2,1.4,2.2c0.3,0,0.5-0.1,0.7-0.2L710.4,271.1z"/>
		<path d="M714.8,268.4c0,2.2-1,3-1.9,3c-1,0-1.9-0.9-1.9-3c0-2.1,0.9-3,1.9-3C713.9,265.4,714.8,266.3,714.8,268.4z M711.9,268.4
			c0,1,0.2,2.3,1,2.3c0.8,0,0.9-1.4,0.9-2.3c0-0.9-0.2-2.3-1-2.3C712,266.1,711.9,267.5,711.9,268.4z"/>
		<path d="M719.4,268.4c0,2.2-1,3-1.9,3c-1,0-1.9-0.9-1.9-3c0-2.1,0.9-3,1.9-3C718.5,265.4,719.4,266.3,719.4,268.4z M716.5,268.4
			c0,1,0.2,2.3,1,2.3c0.8,0,0.9-1.4,0.9-2.3c0-0.9-0.2-2.3-1-2.3C716.6,266.1,716.5,267.5,716.5,268.4z"/>
		<path d="M720.4,267c0-0.5,0-1.1,0-1.5h0.8l0,0.9h0c0.2-0.6,0.7-1,1.2-1c0.1,0,0.1,0,0.2,0v0.9c-0.1,0-0.1,0-0.2,0
			c-0.6,0-1,0.5-1.1,1.2c0,0.2,0,0.3,0,0.5v3.2h-0.9V267z"/>
		<path d="M726.9,263v6.9c0,0.4,0,1.1,0,1.4h-0.8l-0.1-0.7h0c-0.2,0.4-0.6,0.8-1.2,0.8c-1,0-1.7-1.1-1.7-3c0-2.1,0.9-3,1.8-3
			c0.4,0,0.8,0.2,1.1,0.7h0V263H726.9z M725.9,267.7c0-0.1,0-0.3,0-0.4c-0.1-0.6-0.4-1.1-0.9-1.1c-0.8,0-1,1.1-1,2.2
			c0,1.2,0.3,2.2,1,2.2c0.3,0,0.7-0.2,0.9-1c0-0.1,0-0.2,0-0.4V267.7z"/>
		<path d="M728.1,270.7c0-0.4,0.3-0.7,0.6-0.7c0.4,0,0.6,0.3,0.6,0.7s-0.2,0.7-0.6,0.7C728.4,271.4,728.1,271.1,728.1,270.7z"/>
		<path d="M669.6,277.9v2.7h-2.7v-2.7L669.6,277.9z"/>
		<path d="M684.7,282.7c0-0.4,0.3-0.7,0.6-0.7c0.4,0,0.6,0.3,0.6,0.7s-0.2,0.7-0.6,0.7C685,283.4,684.7,283.1,684.7,282.7z"/>
		<path d="M687.1,282.7c0-0.4,0.3-0.7,0.6-0.7c0.4,0,0.6,0.3,0.6,0.7s-0.2,0.7-0.6,0.7C687.3,283.4,687.1,283.1,687.1,282.7z"/>
		<path d="M689.4,282.7c0-0.4,0.3-0.7,0.6-0.7c0.4,0,0.6,0.3,0.6,0.7s-0.2,0.7-0.6,0.7C689.6,283.4,689.4,283.1,689.4,282.7z"/>
	</g>
</g>
<text transform="matrix(1 0 0 1 487.5593 402.512)"><tspan x="0" y="0" class="st0 st10 st30">x = 8956 µm</tspan><tspan x="0" y="12" class="st0 st10 st30">y = 6312 µm</tspan></text>
<text transform="matrix(1 0 0 1 583.9374 402.5123)"><tspan x="0" y="0" class="st0 st10 st30">x = 12317 µm</tspan><tspan x="0" y="12" class="st0 st10 st30">y = 2524 µm</tspan></text>
<text transform="matrix(1 0 0 1 683.15 402.5123)"><tspan x="0" y="0" class="st0 st10 st30">x = 5342 µm</tspan><tspan x="0" y="12" class="st0 st10 st30">y = 4017 µm</tspan></text>
<text transform="matrix(1 0 0 1 232.441 473.378)" class="st0 st10 st15">High resolution </text>
<line class="st31" x1="226.8" y1="255.1" x2="368.5" y2="255.1"/>
<line class="st31" x1="226.8" y1="453.5" x2="368.5" y2="453.5"/>
<image style="overflow:visible;" width="376" height="376" xlink:href="CC2D9B06.png"  transform="matrix(8.292846e-02 0 0 8.292846e-02 62.3623 56.7008)">
</image>
<circle class="st32" cx="78" cy="72.3" r="15.6"/>
<circle class="st33" cx="78" cy="72.3" r="15.6"/>
<text transform="matrix(1 0 0 1 67.9623 75.7352)" class="st0 st34 st35">ZEN</text>
<g>
	<defs>
		<rect id="SVGID_00000107576698639016960950000001157078497312134835_" x="85" y="243.8" width="59.5" height="42.5"/>
	</defs>
	<clipPath id="SVGID_00000168108756060249224990000015573233063386093226_">
		<use xlink:href="#SVGID_00000107576698639016960950000001157078497312134835_"  style="overflow:visible;"/>
	</clipPath>
	<g style="clip-path:url(#SVGID_00000168108756060249224990000015573233063386093226_);">
		
			<image style="overflow:visible;" width="1300" height="1228" xlink:href="CC2D9B3A.png"  transform="matrix(4.579043e-02 0 0 4.579043e-02 85.0394 240.937)">
		</image>
	</g>
</g>
<g>
	<defs>
		<rect id="SVGID_00000162325910656208093880000018253657744879098556_" x="147.4" y="254.4" width="51" height="29.8"/>
	</defs>
	<clipPath id="SVGID_00000077282141252227210540000013692062694094248076_">
		<use xlink:href="#SVGID_00000162325910656208093880000018253657744879098556_"  style="overflow:visible;"/>
	</clipPath>
	<g style="clip-path:url(#SVGID_00000077282141252227210540000013692062694094248076_);">
		
			<image style="overflow:visible;" width="636" height="750" xlink:href="CC2D9B39.png"  transform="matrix(9.070866e-02 0 0 9.070866e-02 140.7345 218.2598)">
		</image>
	</g>
</g>
<text transform="matrix(1 0 0 1 165.3773 362.8262)" class="st10 st11">Z-stack</text>
<g>
	
		<image style="overflow:visible;opacity:0.15;" width="251" height="226" xlink:href="CC2D9B26.png"  transform="matrix(0.24 0 0 0.24 151.3361 361.3281)">
	</image>
	<g>
		<g>
			<g>
				<polygon class="st36" points="184.3,402.5 155.9,402.5 170.1,391.2 198.4,391.2 				"/>
				<polygon class="st36" points="184.3,398.3 155.9,398.3 170.1,386.9 198.4,386.9 				"/>
				<polygon class="st36" points="184.3,394 155.9,394 170.1,382.7 198.4,382.7 				"/>
				<polygon class="st36" points="184.3,389.8 155.9,389.8 170.1,378.4 198.4,378.4 				"/>
				<polygon class="st36" points="184.3,385.5 155.9,385.5 170.1,374.2 198.4,374.2 				"/>
			</g>
			<g>
				<g>
					<line class="st37" x1="177.2" y1="371" x2="177.2" y2="379.8"/>
					<g>
						<polygon class="st12" points="173.4,372.1 177.2,365.7 180.9,372.1 						"/>
					</g>
				</g>
			</g>
		</g>
	</g>
</g>
<text transform="matrix(1 0 0 1 159.8208 419.5203)" class="st10 st11">Timelapse</text>
<text transform="matrix(1 0 0 1 85.6064 362.8267)" class="st10 st11">Multi-channels</text>
<g>
	
		<image style="overflow:visible;opacity:0.15;" width="250" height="216" xlink:href="CC2D9B29.png"  transform="matrix(0.24 0 0 0.24 151.3361 420.6081)">
	</image>
	<g>
		<g>
			<rect x="156" y="425.2" class="st38" width="22.7" height="22.7"/>
			<rect x="161.7" y="429" class="st38" width="22.7" height="22.7"/>
			<rect x="167.3" y="432.7" class="st38" width="22.7" height="22.7"/>
			<rect x="173" y="436.5" class="st38" width="22.7" height="22.7"/>
			<g>
				<g>
					<line class="st37" x1="193" y1="447.9" x2="184.3" y2="447.9"/>
					<g>
						<polygon class="st12" points="191.9,444.1 198.4,447.9 191.9,451.6 						"/>
					</g>
				</g>
			</g>
		</g>
	</g>
</g>
<g>
	
		<image style="overflow:visible;opacity:0.15;" width="192" height="192" xlink:href="CC2D9B2A.png"  transform="matrix(0.24 0 0 0.24 94.6961 363.9681)">
	</image>
	<g>
		<rect x="99.2" y="368.5" class="st2" width="28.3" height="28.3"/>
		<rect x="99.2" y="368.5" class="st39" width="28.3" height="28.3"/>
	</g>
</g>
<path class="st40" d="M108.2,378.7c-0.8,0.9-1.6,2.1-1.6,3.7c0,1.7,1,3.8,2.7,4.5c1.1,0.4,2.3-0.1,2.9-1.1c0.5-0.9,0.3-2.1,1-2.9
	c1.1-1.4,3.7-0.9,4.7-2.3c0.7-1,0.2-2.4-0.7-3.1c-0.9-0.7-2.1-1.2-3.3-1.1C111.8,376.4,109.1,377.7,108.2,378.7z"/>
<g>
	<path class="st28" d="M105.6,380.3c0,0.2,0,0.5,0.2,0.6c0.2,0,0.3-0.1,0.4-0.3c0.5-0.8,0.9-1.7,1.6-2.5c0.3-0.3,0.7-0.6,1.1-0.8
		c1.1-0.6,2.3-1,3.6-1.2c1.3-0.3,2.7-0.5,3.9,0.1c0.5,0.3,1,0.8,1.6,1c0.1,0,0.2,0.1,0.3,0c0.2-0.1,0.2-0.4,0.1-0.5
		c-0.2-0.5-0.7-0.8-1.1-1c-0.5-0.2-1-0.3-1.5-0.3c-0.5-0.1-1-0.1-1.5-0.1c-0.7,0-1.4,0.2-2.1,0.4c-1.2,0.4-2.3,0.8-3.5,1.2
		c-0.1,0-0.2,0.1-0.3,0c-0.1-0.1-0.1-0.2,0-0.3c0.1-0.1,0.2-0.1,0.3-0.2c1.3-0.5,2.6-0.9,3.9-1.3c0.5-0.1,1-0.3,1.5-0.3
		c0.7,0,1.4,0.3,2.1,0.2c0.1,0,0.1,0,0.1-0.1c0.1-0.1,0-0.3-0.2-0.4c-0.8-0.4-1.8-0.3-2.6-0.1c-0.1,0-0.3,0-0.4,0
		c-0.1,0-0.2-0.2-0.2-0.3c0.8-0.2,1.6,0.1,2.3-0.4c0,0,0.1-0.1,0.1-0.1c0.1-0.2-0.2-0.3-0.4-0.3c-0.8,0-1.6,0.2-2.4,0.4
		c-0.9,0.3-1.8,0.5-2.7,0.8c-0.2,0-0.3,0.1-0.3,0.3c0,0.1,0.1,0.2,0.3,0.2c0.4,0.1,0.7-0.1,1-0.3c0.4-0.2,0.9-0.3,1.4-0.3
		c0.1,0,0.2,0,0.2,0.1c0.1,0.1-0.1,0.2-0.2,0.3c-1.3,0.5-2.7,0.8-4,1.3c-1.3,0.5-2.6,1.1-3.6,2.1c-0.3,0.3-0.6,0.7-0.4,1
		c0,0,0.1,0.1,0.1,0.1c0.1,0,0.2,0,0.3-0.1c0.5-0.4,0.9-0.8,1.4-1.3c0.5-0.4,1.1-0.8,1.7-0.8c0.1,0.1,0,0.3-0.2,0.5
		c-0.5,0.4-1.1,0.7-1.4,1.2C105.7,379.2,105.7,379.7,105.6,380.3z"/>
	<path class="st28" d="M105.3,381.8c0-0.1,0.1-0.3,0.2-0.3c0.1-0.1,0.3,0,0.4,0.1c0.1,0.1,0.1,0.3,0.1,0.4c0.1,0.7,0.2,1.3,0.2,2
		c0,0.3,0.1,0.5,0.1,0.8c0.2,0.8,0.9,1.5,1.5,2.1c0.2,0.2,0.4,0.4,0.7,0.5c0.2,0.1,0.3,0.1,0.5,0.1s0.3,0.1,0.4,0.3
		c0.1,0.1,0.1,0.4-0.1,0.5c-0.1,0-0.2,0.1-0.2,0.1c-0.3,0-0.7-0.1-1-0.2c-0.2-0.1-0.4-0.3-0.5-0.4c-0.3-0.2-0.5-0.5-0.8-0.7
		c-0.2-0.2-0.4-0.4-0.5-0.6c-0.1-0.2-0.1-0.3-0.2-0.5c-0.1-0.2-0.1-0.4-0.2-0.6c-0.1-0.3-0.2-0.7-0.3-1c0-0.1,0-0.2-0.1-0.3
		c-0.1-0.1-0.2-0.2-0.3-0.1c-0.2,0.1-0.2,0.3-0.1,0.4c0.2,0.9,0.7,1.7,1,2.6c0,0,0,0.1,0,0.1c0,0-0.1,0-0.1,0.1
		c-0.2,0-0.5-0.1-0.7-0.3c-0.2-0.2-0.2-0.4-0.3-0.7c-0.2-0.7-0.2-1.5-0.4-2.2c-0.2-0.7-0.4-1.4-1-2c-0.2-0.2-0.3-0.3-0.4-0.5
		s-0.1-0.5,0.1-0.6c0.1-0.1,0.4-0.1,0.5,0c0.2,0.1,0.3,0.3,0.3,0.4c0.3,0.6,0.3,1.4,0.9,1.9c0.1,0.1,0.2,0.1,0.2,0.1
		C106,382.9,105.2,382.2,105.3,381.8z"/>
	<path class="st28" d="M102.1,379.3c0,0.2,0,0.5,0.2,0.5c0.2,0.1,0.3,0,0.5-0.1c0.1-0.1,0.2-0.2,0.3-0.4c0.9-1.2,1.9-2.4,3.3-3.1
		c0.8-0.4,1.6-0.6,2.4-0.9c0.2,0,0.4-0.1,0.3-0.3c0-0.1-0.1-0.2-0.2-0.2s-0.2,0-0.3,0c-0.8,0.3-1.6,0.8-2.4,1.1
		c-0.1,0-0.3,0.1-0.3-0.1c0-0.1,0.1-0.2,0.2-0.2c1.3-0.7,2.7-1.2,4.1-1.6c0.2-0.1,0.5-0.1,0.7-0.3c0.1-0.1,0.1-0.1,0.1-0.2
		c0-0.1-0.1-0.2-0.2-0.3c-0.1,0-0.2,0-0.4,0c-1,0.2-1.8,1-2.8,1.2c0-0.1,0-0.3,0.2-0.4c0.1-0.1,0.2-0.1,0.4-0.2
		c0.5-0.2,1-0.4,1.4-0.7c0.1-0.1,0.2-0.1,0.2-0.2s0-0.2,0-0.3c0,0-0.1,0-0.1,0c-0.5,0-0.9,0.4-1.3,0.7c-0.7,0.6-1.5,0.9-2.4,1.1
		c-0.5,0.1-0.9,0.1-1.4,0.2c-0.1,0-0.3,0.1-0.4,0.2c-0.1,0.2,0.1,0.3,0.2,0.4c0.2,0,0.3,0,0.5-0.1c0.6-0.2,1.3-0.4,1.9-0.7
		c0.1,0,0.2,0,0.2,0c0,0.1,0,0.1-0.1,0.1c-0.2,0.1-0.4,0.2-0.7,0.3c-0.9,0.4-1.6,1.1-2.4,1.8c-0.1,0.1-0.2,0.2-0.4,0.2
		s-0.3-0.1-0.3-0.2c0-0.1,0-0.1,0.1-0.2c0.1-0.2,0.3-0.2,0.5-0.3c0.2-0.1,0.3-0.3,0.3-0.5c0,0,0-0.1,0-0.1c-0.1-0.2-0.4-0.1-0.6,0.1
		s-0.2,0.4-0.4,0.5c-0.2,0.2-0.5,0.3-0.9,0.4c-0.3,0-0.7,0-1,0.1c-0.1,0-0.3,0.1-0.3,0.2c-0.1,0.2,0.1,0.4,0.3,0.5
		c0.2,0,0.4-0.1,0.6-0.2c0.2-0.1,0.3-0.3,0.6-0.3c0.3-0.1,0.6,0,0.8,0.3c0.2,0.2,0.2,0.6,0,0.8C102.9,378.7,102.2,378.7,102.1,379.3
		z"/>
	<path class="st28" d="M103.6,379.5c-0.1,0-0.1,0.1-0.1,0.2c0,0,0,0.1,0.1,0.1c0.2,0.2,0.5,0.3,0.8,0.6c0.2,0.3,0.3,0.6,0.4,1
		c0,0.1,0.1,0.2,0.1,0.2c0.1,0,0.1-0.1,0.2-0.1c0.2-0.3,0.1-0.8-0.2-1c-0.1-0.1-0.1-0.1-0.1-0.2s0-0.2,0-0.2c0.1,0,0.1,0,0.2,0
		c0.2,0,0.4-0.2,0.3-0.4c0-0.1-0.2-0.2-0.3-0.2s-0.3,0.1-0.4,0.2c-0.1,0.2-0.4,0.4-0.5,0.1c0-0.1,0-0.2-0.1-0.2
		C103.8,379.3,103.7,379.4,103.6,379.5z"/>
</g>
<g class="st41">
	<ellipse class="st29" cx="114.8" cy="384" rx="1" ry="1"/>
	<path class="st42" d="M114.8,384c0,0-0.8,2.3-0.8,4.5c0,2.3,0.8,3.9,0.8,3.9"/>
	<path class="st42" d="M121.4,391.2c0,0-2.2-3.1-3.5-4.3c-1.1-1.1-3.1-2.8-3.1-2.8"/>
	<path class="st42" d="M125.9,384.2c0,0-4.5-0.9-6.7-0.8c-1.9,0.1-4.4,0.7-4.4,0.7"/>
	<path class="st42" d="M125.2,387.7c0,0-3.6-2-6.1-2.7c-1.9-0.5-4.2-1-4.2-1"/>
	<path class="st42" d="M117.6,391.4c0,0-1.1-2.3-1.4-3.1c-0.4-1.1-1.4-4.3-1.4-4.3"/>
	<path class="st42" d="M111.7,389.3c0,0,0.5-1.5,1.3-2.9c0.4-0.8,1.8-2.4,1.8-2.4"/>
	<path class="st42" d="M125.8,380.3c0,0-4.7,0.1-8.3,1.8c-1.3,0.6-2.7,2-2.7,2"/>
</g>
<g>
	
		<image style="overflow:visible;opacity:0.15;" width="192" height="192" xlink:href="CC2D9B28.png"  transform="matrix(0.24 0 0 0.24 94.6961 395.1681)">
	</image>
	<g>
		<rect x="99.2" y="399.7" class="st2" width="28.3" height="28.3"/>
		<rect x="99.2" y="399.7" class="st39" width="28.3" height="28.3"/>
	</g>
</g>
<path class="st40" d="M108.2,409.9c-0.8,0.9-1.6,2.1-1.6,3.7c0,1.7,1,3.8,2.7,4.5c1.1,0.4,2.3-0.1,2.9-1.1c0.5-0.9,0.3-2.1,1-2.9
	c1.1-1.4,3.7-0.9,4.7-2.3c0.7-1,0.2-2.4-0.7-3.1s-2.1-1.2-3.3-1.1C111.8,407.6,109.1,408.9,108.2,409.9z"/>
<g class="st41">
	<path class="st28" d="M105.6,411.5c0,0.2,0,0.5,0.2,0.6c0.2,0,0.3-0.1,0.4-0.3c0.5-0.8,0.9-1.7,1.6-2.5c0.3-0.3,0.7-0.6,1.1-0.8
		c1.1-0.6,2.3-1,3.6-1.2c1.3-0.3,2.7-0.5,3.9,0.1c0.5,0.3,1,0.8,1.6,1c0.1,0,0.2,0.1,0.3,0c0.2-0.1,0.2-0.4,0.1-0.5
		c-0.2-0.5-0.7-0.8-1.1-1c-0.5-0.2-1-0.3-1.5-0.3c-0.5-0.1-1-0.1-1.5-0.1c-0.7,0-1.4,0.2-2.1,0.4c-1.2,0.4-2.3,0.8-3.5,1.2
		c-0.1,0-0.2,0.1-0.3,0c-0.1-0.1-0.1-0.2,0-0.3c0.1-0.1,0.2-0.1,0.3-0.2c1.3-0.5,2.6-0.9,3.9-1.3c0.5-0.1,1-0.3,1.5-0.3
		c0.7,0,1.4,0.3,2.1,0.2c0.1,0,0.1,0,0.1-0.1c0.1-0.1,0-0.3-0.2-0.4c-0.8-0.4-1.8-0.3-2.6-0.1c-0.1,0-0.3,0-0.4,0
		c-0.1,0-0.2-0.2-0.2-0.3c0.8-0.2,1.6,0.1,2.3-0.4c0,0,0.1-0.1,0.1-0.1c0.1-0.2-0.2-0.3-0.4-0.3c-0.8,0-1.6,0.2-2.4,0.4
		c-0.9,0.3-1.8,0.5-2.7,0.8c-0.2,0-0.3,0.1-0.3,0.3c0,0.1,0.1,0.2,0.3,0.2c0.4,0.1,0.7-0.1,1-0.3c0.4-0.2,0.9-0.3,1.4-0.3
		c0.1,0,0.2,0,0.2,0.1c0.1,0.1-0.1,0.2-0.2,0.3c-1.3,0.5-2.7,0.8-4,1.3c-1.3,0.5-2.6,1.1-3.6,2.1c-0.3,0.3-0.6,0.7-0.4,1
		c0,0,0.1,0.1,0.1,0.1c0.1,0,0.2,0,0.3-0.1c0.5-0.4,0.9-0.8,1.4-1.3c0.5-0.4,1.1-0.8,1.7-0.8c0.1,0.1,0,0.3-0.2,0.5
		c-0.5,0.4-1.1,0.7-1.4,1.2C105.7,410.3,105.7,410.9,105.6,411.5z"/>
	<path class="st28" d="M105.3,413c0-0.1,0.1-0.3,0.2-0.3c0.1-0.1,0.3,0,0.4,0.1s0.1,0.3,0.1,0.4c0.1,0.7,0.2,1.3,0.2,2
		c0,0.3,0.1,0.5,0.1,0.8c0.2,0.8,0.9,1.5,1.5,2.1c0.2,0.2,0.4,0.4,0.7,0.5c0.2,0.1,0.3,0.1,0.5,0.1s0.3,0.1,0.4,0.3
		c0.1,0.1,0.1,0.4-0.1,0.5c-0.1,0-0.2,0.1-0.2,0.1c-0.3,0-0.7-0.1-1-0.2c-0.2-0.1-0.4-0.3-0.5-0.4c-0.3-0.2-0.5-0.5-0.8-0.7
		c-0.2-0.2-0.4-0.4-0.5-0.6c-0.1-0.2-0.1-0.3-0.2-0.5c-0.1-0.2-0.1-0.4-0.2-0.6c-0.1-0.3-0.2-0.7-0.3-1c0-0.1,0-0.2-0.1-0.3
		c-0.1-0.1-0.2-0.2-0.3-0.1c-0.2,0.1-0.2,0.3-0.1,0.4c0.2,0.9,0.7,1.7,1,2.6c0,0,0,0.1,0,0.1c0,0-0.1,0-0.1,0.1
		c-0.2,0-0.5-0.1-0.7-0.3c-0.2-0.2-0.2-0.4-0.3-0.7c-0.2-0.7-0.2-1.5-0.4-2.2c-0.2-0.7-0.4-1.4-1-2c-0.2-0.2-0.3-0.3-0.4-0.5
		s-0.1-0.5,0.1-0.6c0.1-0.1,0.4-0.1,0.5,0c0.2,0.1,0.3,0.3,0.3,0.4c0.3,0.6,0.3,1.4,0.9,1.9c0.1,0.1,0.2,0.1,0.2,0.1
		C106,414,105.2,413.4,105.3,413z"/>
	<path class="st28" d="M102.1,410.4c0,0.2,0,0.5,0.2,0.5c0.2,0.1,0.3,0,0.5-0.1c0.1-0.1,0.2-0.2,0.3-0.4c0.9-1.2,1.9-2.4,3.3-3.1
		c0.8-0.4,1.6-0.6,2.4-0.9c0.2,0,0.4-0.1,0.3-0.3c0-0.1-0.1-0.2-0.2-0.2c-0.1,0-0.2,0-0.3,0c-0.8,0.3-1.6,0.8-2.4,1.1
		c-0.1,0-0.3,0.1-0.3-0.1c0-0.1,0.1-0.2,0.2-0.2c1.3-0.7,2.7-1.2,4.1-1.6c0.2-0.1,0.5-0.1,0.7-0.3c0.1-0.1,0.1-0.1,0.1-0.2
		c0-0.1-0.1-0.2-0.2-0.3c-0.1,0-0.2,0-0.4,0c-1,0.2-1.8,1-2.8,1.2c0-0.1,0-0.3,0.2-0.4c0.1-0.1,0.2-0.1,0.4-0.2
		c0.5-0.2,1-0.4,1.4-0.7c0.1-0.1,0.2-0.1,0.2-0.2s0-0.2,0-0.3c0,0-0.1,0-0.1,0c-0.5,0-0.9,0.4-1.3,0.7c-0.7,0.6-1.5,0.9-2.4,1.1
		c-0.5,0.1-0.9,0.1-1.4,0.2c-0.1,0-0.3,0.1-0.4,0.2c-0.1,0.2,0.1,0.3,0.2,0.4c0.2,0,0.3,0,0.5-0.1c0.6-0.2,1.3-0.4,1.9-0.7
		c0.1,0,0.2,0,0.2,0c0,0.1,0,0.1-0.1,0.1c-0.2,0.1-0.4,0.2-0.7,0.3c-0.9,0.4-1.6,1.1-2.4,1.8c-0.1,0.1-0.2,0.2-0.4,0.2
		c-0.1,0-0.3-0.1-0.3-0.2c0-0.1,0-0.1,0.1-0.2c0.1-0.2,0.3-0.2,0.5-0.3c0.2-0.1,0.3-0.3,0.3-0.5c0,0,0-0.1,0-0.1
		c-0.1-0.2-0.4-0.1-0.6,0.1c-0.1,0.2-0.2,0.4-0.4,0.5c-0.2,0.2-0.5,0.3-0.9,0.4c-0.3,0-0.7,0-1,0.1c-0.1,0-0.3,0.1-0.3,0.2
		c-0.1,0.2,0.1,0.4,0.3,0.5c0.2,0,0.4-0.1,0.6-0.2c0.2-0.1,0.3-0.3,0.6-0.3c0.3-0.1,0.6,0,0.8,0.3c0.2,0.2,0.2,0.6,0,0.8
		C102.9,409.9,102.2,409.9,102.1,410.4z"/>
	<path class="st28" d="M103.6,410.6c-0.1,0-0.1,0.1-0.1,0.2c0,0,0,0.1,0.1,0.1c0.2,0.2,0.5,0.3,0.8,0.6c0.2,0.3,0.3,0.6,0.4,1
		c0,0.1,0.1,0.2,0.1,0.2c0.1,0,0.1-0.1,0.2-0.1c0.2-0.3,0.1-0.8-0.2-1c-0.1-0.1-0.1-0.1-0.1-0.2c0-0.1,0-0.2,0-0.2
		c0.1,0,0.1,0,0.2,0c0.2,0,0.4-0.2,0.3-0.4c0-0.1-0.2-0.2-0.3-0.2c-0.1,0-0.3,0.1-0.4,0.2c-0.1,0.2-0.4,0.4-0.5,0.1
		c0-0.1,0-0.2-0.1-0.2C103.8,410.5,103.7,410.6,103.6,410.6z"/>
</g>
<g>
	<ellipse class="st29" cx="114.8" cy="415.2" rx="1" ry="1"/>
	<path class="st42" d="M114.8,415.2c0,0-0.8,2.3-0.8,4.5c0,2.3,0.8,3.9,0.8,3.9"/>
	<path class="st42" d="M121.4,422.3c0,0-2.2-3.1-3.5-4.3c-1.1-1.1-3.1-2.8-3.1-2.8"/>
	<path class="st42" d="M125.9,415.3c0,0-4.5-0.9-6.7-0.8c-1.9,0.1-4.4,0.7-4.4,0.7"/>
	<path class="st42" d="M125.2,418.9c0,0-3.6-2-6.1-2.7c-1.9-0.5-4.2-1-4.2-1"/>
	<path class="st42" d="M117.6,422.6c0,0-1.1-2.3-1.4-3.1c-0.4-1.1-1.4-4.3-1.4-4.3"/>
	<path class="st42" d="M111.7,420.5c0,0,0.5-1.5,1.3-2.9c0.4-0.8,1.8-2.4,1.8-2.4"/>
	<path class="st42" d="M125.8,411.5c0,0-4.7,0.1-8.3,1.8c-1.3,0.6-2.7,2-2.7,2"/>
</g>
<g>
	
		<image style="overflow:visible;opacity:0.15;" width="192" height="193" xlink:href="CC2D9B2E.png"  transform="matrix(0.24 0 0 0.24 94.6961 426.1281)">
	</image>
	<g>
		<rect x="99.2" y="430.9" class="st2" width="28.3" height="28.3"/>
		<rect x="99.2" y="430.9" class="st39" width="28.3" height="28.3"/>
	</g>
</g>
<path class="st43" d="M108.2,441c-0.8,0.9-1.6,2.1-1.6,3.7c0,1.7,1,3.8,2.7,4.5c1.1,0.4,2.3-0.1,2.9-1.1c0.5-0.9,0.3-2.1,1-2.9
	c1.1-1.4,3.7-0.9,4.7-2.3c0.7-1,0.2-2.4-0.7-3.1s-2.1-1.2-3.3-1.1C111.8,438.8,109.1,440.1,108.2,441z"/>
<g class="st41">
	<path class="st28" d="M105.6,442.6c0,0.2,0,0.5,0.2,0.6c0.2,0,0.3-0.1,0.4-0.3c0.5-0.8,0.9-1.7,1.6-2.5c0.3-0.3,0.7-0.6,1.1-0.8
		c1.1-0.6,2.3-1,3.6-1.2c1.3-0.3,2.7-0.5,3.9,0.1c0.5,0.3,1,0.8,1.6,1c0.1,0,0.2,0.1,0.3,0c0.2-0.1,0.2-0.4,0.1-0.5
		c-0.2-0.5-0.7-0.8-1.1-1c-0.5-0.2-1-0.3-1.5-0.3c-0.5-0.1-1-0.1-1.5-0.1c-0.7,0-1.4,0.2-2.1,0.4c-1.2,0.4-2.3,0.8-3.5,1.2
		c-0.1,0-0.2,0.1-0.3,0c-0.1-0.1-0.1-0.2,0-0.3c0.1-0.1,0.2-0.1,0.3-0.2c1.3-0.5,2.6-0.9,3.9-1.3c0.5-0.1,1-0.3,1.5-0.3
		c0.7,0,1.4,0.3,2.1,0.2c0.1,0,0.1,0,0.1-0.1c0.1-0.1,0-0.3-0.2-0.4c-0.8-0.4-1.8-0.3-2.6-0.1c-0.1,0-0.3,0-0.4,0s-0.2-0.2-0.2-0.3
		c0.8-0.2,1.6,0.1,2.3-0.4c0,0,0.1-0.1,0.1-0.1c0.1-0.2-0.2-0.3-0.4-0.3c-0.8,0-1.6,0.2-2.4,0.4c-0.9,0.3-1.8,0.5-2.7,0.8
		c-0.2,0-0.3,0.1-0.3,0.3c0,0.1,0.1,0.2,0.3,0.2c0.4,0.1,0.7-0.1,1-0.3c0.4-0.2,0.9-0.3,1.4-0.3c0.1,0,0.2,0,0.2,0.1
		c0.1,0.1-0.1,0.2-0.2,0.3c-1.3,0.5-2.7,0.8-4,1.3c-1.3,0.5-2.6,1.1-3.6,2.1c-0.3,0.3-0.6,0.7-0.4,1c0,0,0.1,0.1,0.1,0.1
		c0.1,0,0.2,0,0.3-0.1c0.5-0.4,0.9-0.8,1.4-1.3c0.5-0.4,1.1-0.8,1.7-0.8c0.1,0.1,0,0.3-0.2,0.5c-0.5,0.4-1.1,0.7-1.4,1.2
		C105.7,441.5,105.7,442.1,105.6,442.6z"/>
	<path class="st28" d="M105.3,444.1c0-0.1,0.1-0.3,0.2-0.3c0.1-0.1,0.3,0,0.4,0.1s0.1,0.3,0.1,0.4c0.1,0.7,0.2,1.3,0.2,2
		c0,0.3,0.1,0.5,0.1,0.8c0.2,0.8,0.9,1.5,1.5,2.1c0.2,0.2,0.4,0.4,0.7,0.5c0.2,0.1,0.3,0.1,0.5,0.1s0.3,0.1,0.4,0.3
		c0.1,0.1,0.1,0.4-0.1,0.5c-0.1,0-0.2,0.1-0.2,0.1c-0.3,0-0.7-0.1-1-0.2c-0.2-0.1-0.4-0.3-0.5-0.4c-0.3-0.2-0.5-0.5-0.8-0.7
		c-0.2-0.2-0.4-0.4-0.5-0.6c-0.1-0.2-0.1-0.3-0.2-0.5c-0.1-0.2-0.1-0.4-0.2-0.6c-0.1-0.3-0.2-0.7-0.3-1c0-0.1,0-0.2-0.1-0.3
		c-0.1-0.1-0.2-0.2-0.3-0.1c-0.2,0.1-0.2,0.3-0.1,0.4c0.2,0.9,0.7,1.7,1,2.6c0,0,0,0.1,0,0.1c0,0-0.1,0-0.1,0.1
		c-0.2,0-0.5-0.1-0.7-0.3c-0.2-0.2-0.2-0.4-0.3-0.7c-0.2-0.7-0.2-1.5-0.4-2.2c-0.2-0.7-0.4-1.4-1-2c-0.2-0.2-0.3-0.3-0.4-0.5
		s-0.1-0.5,0.1-0.6c0.1-0.1,0.4-0.1,0.5,0c0.2,0.1,0.3,0.3,0.3,0.4c0.3,0.6,0.3,1.4,0.9,1.9c0.1,0.1,0.2,0.1,0.2,0.1
		C106,445.2,105.2,444.5,105.3,444.1z"/>
	<path class="st28" d="M102.1,441.6c0,0.2,0,0.5,0.2,0.5c0.2,0.1,0.3,0,0.5-0.1c0.1-0.1,0.2-0.2,0.3-0.4c0.9-1.2,1.9-2.4,3.3-3.1
		c0.8-0.4,1.6-0.6,2.4-0.9c0.2,0,0.4-0.1,0.3-0.3c0-0.1-0.1-0.2-0.2-0.2s-0.2,0-0.3,0c-0.8,0.3-1.6,0.8-2.4,1.1
		c-0.1,0-0.3,0.1-0.3-0.1c0-0.1,0.1-0.2,0.2-0.2c1.3-0.7,2.7-1.2,4.1-1.6c0.2-0.1,0.5-0.1,0.7-0.3c0.1-0.1,0.1-0.1,0.1-0.2
		c0-0.1-0.1-0.2-0.2-0.3c-0.1,0-0.2,0-0.4,0c-1,0.2-1.8,1-2.8,1.2c0-0.1,0-0.3,0.2-0.4c0.1-0.1,0.2-0.1,0.4-0.2
		c0.5-0.2,1-0.4,1.4-0.7c0.1-0.1,0.2-0.1,0.2-0.2s0-0.2,0-0.3c0,0-0.1,0-0.1,0c-0.5,0-0.9,0.4-1.3,0.7c-0.7,0.6-1.5,0.9-2.4,1.1
		c-0.5,0.1-0.9,0.1-1.4,0.2c-0.1,0-0.3,0.1-0.4,0.2c-0.1,0.2,0.1,0.3,0.2,0.4c0.2,0,0.3,0,0.5-0.1c0.6-0.2,1.3-0.4,1.9-0.7
		c0.1,0,0.2,0,0.2,0c0,0.1,0,0.1-0.1,0.1c-0.2,0.1-0.4,0.2-0.7,0.3c-0.9,0.4-1.6,1.1-2.4,1.8c-0.1,0.1-0.2,0.2-0.4,0.2
		c-0.1,0-0.3-0.1-0.3-0.2c0-0.1,0-0.1,0.1-0.2c0.1-0.2,0.3-0.2,0.5-0.3c0.2-0.1,0.3-0.3,0.3-0.5c0,0,0-0.1,0-0.1
		c-0.1-0.2-0.4-0.1-0.6,0.1c-0.1,0.2-0.2,0.4-0.4,0.5c-0.2,0.2-0.5,0.3-0.9,0.4c-0.3,0-0.7,0-1,0.1c-0.1,0-0.3,0.1-0.3,0.2
		c-0.1,0.2,0.1,0.4,0.3,0.5c0.2,0,0.4-0.1,0.6-0.2c0.2-0.1,0.3-0.3,0.6-0.3c0.3-0.1,0.6,0,0.8,0.3c0.2,0.2,0.2,0.6,0,0.8
		C102.9,441.1,102.2,441,102.1,441.6z"/>
	<path class="st28" d="M103.6,441.8c-0.1,0-0.1,0.1-0.1,0.2c0,0,0,0.1,0.1,0.1c0.2,0.2,0.5,0.3,0.8,0.6c0.2,0.3,0.3,0.6,0.4,1
		c0,0.1,0.1,0.2,0.1,0.2c0.1,0,0.1-0.1,0.2-0.1c0.2-0.3,0.1-0.8-0.2-1c-0.1-0.1-0.1-0.1-0.1-0.2s0-0.2,0-0.2c0.1,0,0.1,0,0.2,0
		c0.2,0,0.4-0.2,0.3-0.4c0-0.1-0.2-0.2-0.3-0.2s-0.3,0.1-0.4,0.2c-0.1,0.2-0.4,0.4-0.5,0.1c0-0.1,0-0.2-0.1-0.2
		C103.8,441.7,103.7,441.8,103.6,441.8z"/>
</g>
<g class="st41">
	<ellipse class="st29" cx="114.8" cy="446.4" rx="1" ry="1"/>
	<path class="st42" d="M114.8,446.4c0,0-0.8,2.3-0.8,4.5c0,2.3,0.8,3.9,0.8,3.9"/>
	<path class="st42" d="M121.4,453.5c0,0-2.2-3.1-3.5-4.3c-1.1-1.1-3.1-2.8-3.1-2.8"/>
	<path class="st42" d="M125.9,446.5c0,0-4.5-0.9-6.7-0.8c-1.9,0.1-4.4,0.7-4.4,0.7"/>
	<path class="st42" d="M125.2,450.1c0,0-3.6-2-6.1-2.7c-1.9-0.5-4.2-1-4.2-1"/>
	<path class="st42" d="M117.6,453.8c0,0-1.1-2.3-1.4-3.1c-0.4-1.1-1.4-4.3-1.4-4.3"/>
	<path class="st42" d="M111.7,451.7c0,0,0.5-1.5,1.3-2.9c0.4-0.8,1.8-2.4,1.8-2.4"/>
	<path class="st42" d="M125.8,442.6c0,0-4.7,0.1-8.3,1.8c-1.3,0.6-2.7,2-2.7,2"/>
</g>
</svg>
